<?xml version="1.0" standalone="no"?>
<!DOCTYPE svg PUBLIC "-//W3C//DTD SVG 1.1//EN" "http://www.w3.org/Graphics/SVG/1.1/DTD/svg11.dtd" >
<svg xmlns="http://www.w3.org/2000/svg">
<metadata>Generated by IcoMoon</metadata>
<defs>
<font id="icomoon" horiz-adv-x="1024">
<font-face units-per-em="1024" ascent="960" descent="-64" />
<missing-glyph horiz-adv-x="1024" />
<glyph unicode="&#x20;" horiz-adv-x="512" d="" />
<glyph unicode="&#x21;" glyph-name="exclam" horiz-adv-x="324" d="M140 346q-41.5 474.5-41.5 533.5h129.5q0-53.5-50-533.5h-38zM96 141v122.5h125v-122.5h-125z" />
<glyph unicode="&#x22;" glyph-name="quotedbl" d="M315 577l-29 322h127l-38.5-322h-59.5zM138.5 577l-39.5 322h126.5l-27.5-322h-59.5z" />
<glyph unicode="&#x23;" glyph-name="numbersign" horiz-adv-x="715" d="M268 450h128.5l25 139h-129.5zM111.5 141l43 239h-102.5v70h115l25 139h-128v70h140l39.5 220.5h99l-38-220.5h129.5l39.5 220.5h99l-38-220.5h99.5v-70h-112l-24-139h124v-70h-136.5l-41-239h-103l43 239h-128.5l-41.5-239h-103z" />
<glyph unicode="&#x24;" glyph-name="dollar" horiz-adv-x="641" d="M300.5 773q-83.5-9.5-86.5-71.5v-8q0-35.5 17-56.25t69.5-37.25v173zM355.5 891q126.5-5.5 216-57l-42-104.5q-86 41-174 45v-191l79.5-24q76-23 112.75-72.5t36.75-139.25-55.75-153.25-173.25-66.5v-108h-55v109.5q-140 9.5-240.5 65.5l51 108.5q90-47.5 189.5-57v211.5l-79.5 23.5q-58 17-93 48.75t-47.5 69.5-12.5 86.75q0 97 65.25 148.25t167.25 56.25v69h55v-69zM355.5 245q93 5.5 93 90 0 39-9.5 55.5-19.5 31.5-83.5 51.5v-197z" />
<glyph unicode="&#x25;" glyph-name="percent" horiz-adv-x="1057" d="M347 141l271.5 723h86.5l-269-723h-89zM807 131.5q-82 0-116.25 49t-34.25 140.5v26.5q0 92.5 33.75 139t116.5 46.5 117-46.25 35.25-138.75v-27q0-91.5-35-140.5t-117-49zM807 196.5q52 0.5 64 47.5 7 26 6.5 70v43.5q0 71.5-17 91t-45 19.5q-62.5 0-73-41.5-6-25.5-6-68v-44.5q0-73 17.5-95.25t53-22.25zM98 662.5v26.5q0 92.5 33.75 139t116.25 46.5 117-46.25 35.5-138.75v-27q0-91.5-35.25-140.5t-118.5-49-116 50.5-32.75 139zM280 544q24.5 11 31.75 39t7.25 72.5v43.5q0 71-17 90.75t-45 19.75q-62.5 0-73-41.5-6-25.5-6-68v-44.5q0-73 17.5-95.25t44.5-22.25 40 6z" />
<glyph unicode="&#x26;" glyph-name="ampersand" horiz-adv-x="763" d="M448.75 245q34.75 6.5 47.75 35.5l-217 212.5q-64.5-18-68-72-1.5-24.5-1.5-56 0-68.5 31.25-97.5t102-29 105.5 6.5zM511.5 143.25q-52.5-15.75-154.25-15.75t-165.25 24.75-90.75 76.75-27.25 134.25 34 125.25 108 65q-44.5 41-66 78.75t-21.5 91.25q0 88 57 129.25t190 41.25 188.25-34.5 55.25-122v-41.5h-119v21q0 45-16.25 57.75t-40.75 15.75-62.5 3q-75 0-97.5-20.25t-22.5-52.75 10.25-48.5 48.25-55.5l228.5-225.5q0.5 7 0.5 15.5v145.5h117.5v-136.5q0-78-13-120l84.5-79.5-80-86.5-64 63q-29-33.5-81.5-49.25z" />
<glyph unicode="&#x27;" glyph-name="quotesingle" horiz-adv-x="385" d="M168.5 577l-39.5 322h126.5l-27.5-322h-59.5z" />
<glyph unicode="&#x28;" glyph-name="parenleft" horiz-adv-x="473" d="M391 61.5q-239 0-278 191.5-9 43.5-9 98v283q0 219.5 150 274 56.5 20.5 137 20.5v-108q-54 0-85-14-63-28.5-62.5-155.5v-315q0.5-126 62.5-153.5 31-13.5 85-13.5v-107.5z" />
<glyph unicode="&#x29;" glyph-name="parenright" horiz-adv-x="473" d="M90.5 61.5v108q53.5 0 84.5 14 63 28.5 63 155v315q0 126-62 153.5-31 13.5-85.5 13.5v108q160.5 0 223.5-76.25t63-213.25v-283q0-220-149.5-274-56.5-20.5-137-20.5z" />
<glyph unicode="&#x2a;" glyph-name="asterisk" horiz-adv-x="499" d="M205 440.5l14.5 162.5-136.5-87-40 80.5 145 58.5-140 71 47.5 76.5 123.5-95-14 156.5h89l-15-162.5 136.5 87 40.5-80.5-145.5-58.5 140-71-47.5-76.5-123.5 95 14.5-156.5h-89z" />
<glyph unicode="&#x2b;" glyph-name="plus" horiz-adv-x="483" d="M200.5 219v165.5h-134.5v81h134.5v159.5h82v-159.5h134.5v-81h-134.5v-165.5h-82z" />
<glyph unicode="&#x2c;" glyph-name="comma" horiz-adv-x="384" d="M174.5-53.5l-53.5 23q25.5 29 49.25 77.25t23.75 94.25h-82.5v138h161v-111.5q0-66.5-33-129.25t-65-91.75z" />
<glyph unicode="&#x2d;" glyph-name="hyphen" horiz-adv-x="484" d="M66 388v74h352v-74h-352z" />
<glyph unicode="&#x2e;" glyph-name="period" horiz-adv-x="384" d="M117.5 141v142h149v-142h-149z" />
<glyph unicode="&#x2f;" glyph-name="slash" d="M53 141l284.5 758h121.5l-284.5-758h-121.5z" />
<glyph unicode="&#x30;" glyph-name="zero" horiz-adv-x="710" d="M352 127.5q-65 0-121 22t-89 59.5q-67 75.5-67 181v236.5q0 137 96 211.5 70.5 54.5 188.5 54.5 166 0 236-115 39.5-65 39.5-153v-232.5q0-84-41-150-71-114-242-114.5zM359.5 240q84.5 0 115.5 68 16 34 16 79.5v243q0 56.5-24.5 98.5-29.5 51-112 51t-113.5-69q-16-34.5-16-80.5v-243q0-73 37.25-110.25t97.25-37.25z" />
<glyph unicode="&#x31;" glyph-name="one" horiz-adv-x="710" d="M101.5 141v104.5h216v516l-205-27-13 108.5 264 36h102.5v-633.5h189.5v-104.5h-554z" />
<glyph unicode="&#x32;" glyph-name="two" horiz-adv-x="710" d="M477.5 675.5q0 105-114 105-71.5 0-100.75-31.75t-29.25-111.75h-152.5q0 133.5 64 194.5t212 61q198 0 249.5-132.5 15-38.5 15-85.5 0-77-36-134.5t-117.5-127l-185-158.5h326v-113.5h-486.5l-18 113 273.5 246.5q58 52 78.75 88.5t20.75 86.5z" />
<glyph unicode="&#x33;" glyph-name="three" horiz-adv-x="710" d="M357.5 240q131.5 0 131.5 114 0 54-13.75 78.75t-48.25 36-100 11.25v99.5q121 0 144 37 14 23 14 69.75t-28.5 70.5-100.5 23.75-100.25-26.75-27.75-96.25h-134q1 130 70 182.5t191.25 52.5 195.25-53.25 73-147.75q0-76-29-112.25t-83-48.25q118.5-32 118.5-177 0-100.5-64-163.5t-203.5-63-204 59.25-67.5 172.25h134q1-68 31.75-93.5t100.75-25.5z" />
<glyph unicode="&#x34;" glyph-name="four" horiz-adv-x="710" d="M419.5 141v141h-334.5v124.5l224.5 472.5h152.5l-215-474h172.5v167h118.5v-167h110v-123h-110v-141h-118.5z" />
<glyph unicode="&#x35;" glyph-name="five" horiz-adv-x="710" d="M255.5 571q43 45 149.25 45t171.5-69 65.25-176.5-75.5-175.25-203-67.75q-78.5 0-153.5 23t-112 50l39.5 99.5q102-61 218-61 141 0 141.5 134.5v0.5q0 53.5-34.25 85.25t-86.75 31.75q-90.5 0-145-51.5l-107 53.5 40.5 386h421v-123h-309z" />
<glyph unicode="&#x36;" glyph-name="six" horiz-adv-x="710" d="M373.5 501q-124.5 0-124.5-131.75t126.75-131.75 126.75 130.5q0 64.5-30 98.75t-99 34.25zM318.5 593q44 13 78 13 122 0 182.25-56.5t60.25-184.5-66-182.5-203.75-54.5-200 57.5-62.25 183.25 67.5 254.75l145 256h160z" />
<glyph unicode="&#x37;" glyph-name="seven" horiz-adv-x="710" d="M180 141l272 622h-337v116h499v-103l-277-635h-157z" />
<glyph unicode="&#x38;" glyph-name="eight" horiz-adv-x="710" d="M472 704q0 85-118.25 85t-118.25-85q0-39.5 26.5-66.5t92-58.5q63 31.5 90.5 59.5t27.5 65.5zM354.5 234.5q72 0 103.5 27t31.5 70.25-33 78-102.5 67.25q-69.5-32.5-102.5-67.25t-33-76.25q0-99 136-99zM462 532.5q166-60 166-207.5 0-95.5-71-146.25t-201.25-50.75-202 51.75-71.75 144.25q0 140 156.5 208.5-143 51.5-143 179 0 79 62.25 130t196.75 51q192.5 0.5 241-111.5 14-32 14-81.25t-36.75-96.5-110.75-70.75z" />
<glyph unicode="&#x39;" glyph-name="nine" horiz-adv-x="710" d="M260.25 563q27.75-27.5 96.5-27.5t94 28.25 25.25 100-24.75 96.75-94 25-97-26.25-27.75-97.5 27.75-98.75zM410.5 435.5q-31-10-84-10-112 0-174.25 53t-62.25 181.25 65.5 180.5 204.25 52.25 200.5-55.25 61.75-179.25-67.5-253l-145-264h-160z" />
<glyph unicode="&#x3a;" glyph-name="colon" horiz-adv-x="385" d="M120.5 239.5v142h149v-142h-149zM120.5 568v142h149v-142h-149z" />
<glyph unicode="&#x3b;" glyph-name="semicolon" horiz-adv-x="385" d="M181.5 45.5l-53.5 23q25.5 29 49.25 77.25t23.75 94.25h-82.5v138h161v-111.5q0-66.5-33-129.25t-65-91.75zM120.5 568v142h149v-142h-149z" />
<glyph unicode="&#x3c;" glyph-name="less" d="M428 156.5l-372 207v109.5l372 208.5v-115.5l-281.5-147 281.5-147v-115.5z" />
<glyph unicode="&#x3d;" glyph-name="equal" horiz-adv-x="440" d="M56 511v86.5h328v-86.5h-328zM56 326.5v86.5h328v-86.5h-328z" />
<glyph unicode="&#x3e;" glyph-name="greater" d="M76 156.5v114.5l281.5 148-281.5 146v116.5l372-208v-109.5z" />
<glyph unicode="&#x3f;" glyph-name="question" horiz-adv-x="622" d="M214.5 141v122.5h124.5v-122.5h-124.5zM222.5 356.5l124 154.5q66.5 83.5 66.5 139.75t-8 76.5-19 30.25q-24.5 23-75.75 23t-68.25-11.25-24-20.25q-16-20-16-84.5v-42.5h-137v37q0 103 27.25 147.5t78.75 64.75 117.5 20.25q66.5-0.5 102.5-6.5 69.5-12 106.25-43.75t49.25-73.25 12.5-105-30.5-118.25-100.5-112.75l-91-75.5h-114.5z" />
<glyph unicode="&#x40;" glyph-name="at" d="M604.5 474q-66.5-18-90-43.5t-23.5-70 28.75-65.25 74.5-20.75 97 18 54.75 37v183.5q-1.5-1-61.5-17.5t-80-21.5zM542-97.5q-422 0-422 412.5v211q0 188.5 91.75 282.5t298.25 94 288-75.75 81.5-254.25l1-234.5q0-39.5 9.5-53.5t44-14l-10-100h-53q-62 0.5-88 31.5-12.5 15.5-25 43-24-33.5-77.5-55.5t-112.5-22q-87 0-145.25 50t-58.25 137.5q0 51.5 16.25 79.75t38.25 45.25q49.5 38.5 151.5 65.5l175 43q0 104-24.75 142.5t-69.25 54.25-104.5 15.75-92-3q-75.5-6.5-120-34.75t-66-88-21.5-163.75v-189q-0.5-202.5 124.5-270.5 71-39 170.75-39t171.75 14 103 20.5 36 7.5l29-101.5q-194.5-51-340.5-51z" />
<glyph unicode="&#x41;" glyph-name="A" horiz-adv-x="756" d="M262.5 380.5h231l-113.5 388zM35 141l243 738h197l246-738h-157.5l-41.5 140.5h-289l-43-140.5h-155z" />
<glyph unicode="&#x42;" glyph-name="B" horiz-adv-x="728" d="M243.5 582h153.5q71 0 84.5 37.5 7.5 21 7.5 62.75t-9.25 60.75-33.75 26.75-76.5 7.75h-126v-195.5zM243.5 245h144q45 0 70.25 4.5t41 19 20.5 37 4.75 55.25-2 49.25q-5 42-31.5 62.25t-88 20.25h-159v-247.5zM95 141v738h284q152 0 208-47.5 29-25 41.25-59.5t12.25-91-20-90.25-74.5-47.75q74-10 100-56t26-122v-9q0-109-60-162t-197-53h-320z" />
<glyph unicode="&#x43;" glyph-name="C" horiz-adv-x="745" d="M257 141q-56 13-89.75 34.5t-53.75 55.25-26.75 69.25-6.75 83v246.5q0 132 53.5 185 53.5 53.5 142 68.5 50 9 113 8.5 228.5 0 272.5-125 20-56 20-134v-9l-145.5-17v37.5q0 77-30.25 104t-115.75 27-123.25-27.25-37.75-100.75v-279q0-74 38.75-98.75t123.25-24.75q44.5 0 70.5 4.75t43.75 19.25 24.25 38.5 6.5 64v23.5h145.5v-13.5q0-109.5-32.25-158.25t-92.75-71.75-151.75-23-147.25 13z" />
<glyph unicode="&#x44;" glyph-name="D" horiz-adv-x="767" d="M95 141v738h320q177 0 238-105 34-59 34-152.5v-226.5q0-187-142-235.5-54-18.5-129.5-18.5h-320.5zM243.5 256.5h159q76 0 106 28t30 91.5v265q0 62.5-30.75 92.5t-105.25 30h-159v-507z" />
<glyph unicode="&#x45;" glyph-name="E" horiz-adv-x="647" d="M95 141v738h483.5v-112h-335.5v-196h297.5v-107h-297.5v-211h341v-112h-489z" />
<glyph unicode="&#x46;" glyph-name="F" horiz-adv-x="587" d="M95 141v738h446.5v-113.5h-298v-201h277.5v-106.5h-277.5v-317h-148.5z" />
<glyph unicode="&#x47;" glyph-name="G" horiz-adv-x="804" d="M487.75 136.25q-36.25-8.25-97.25-8.25-60.5 0-118.5 13-108.5 24-150.25 86.25t-41.75 155.75v246.5q0 152.5 97 213 78.5 49 229.5 49 242.5-0.5 287.5-136.5 15-46 15-110.5v-11.5l-146-11v29.5q0 72-35 97.75t-122.75 25.75-132-28-44.25-100v-279q0-73.5 45.5-98.5t132-25 127.75 25 41.25 98.5v54h-149v97.5h283v-378.5h-78.5l-23.5 85q-6.5-22-24.75-40.75t-38.5-29.75-56.5-19.25z" />
<glyph unicode="&#x48;" glyph-name="H" horiz-adv-x="812" d="M95 141v738h149v-314h324v314h149v-738h-149v307.5h-324v-307.5h-149z" />
<glyph unicode="&#x49;" glyph-name="I" horiz-adv-x="574" d="M79 141v111h134.5v516.5h-134.5v110.5h416v-110.5h-133.5v-516.5h133.5v-111h-416z" />
<glyph unicode="&#x4a;" glyph-name="J" horiz-adv-x="611" d="M447.5 187.25q-70.5-58.75-192.5-58.75t-220 46l34.5 110q36.5-17 85.25-28t87.75-11q66 0 96.5 32t30.5 84v404.5h-254v113h402.5v-527q0-106-70.5-164.75z" />
<glyph unicode="&#x4b;" glyph-name="K" horiz-adv-x="724" d="M95 141v738h148.5v-358l287 358h164l-258.5-336 277-402h-167.5l-232.5 339.5-69.5-69v-270.5h-148.5z" />
<glyph unicode="&#x4c;" glyph-name="L" horiz-adv-x="586" d="M95 141v738h148.5v-622h308.5v-116h-457z" />
<glyph unicode="&#x4d;" glyph-name="M" horiz-adv-x="937" d="M95 141v738h163.5l210-357.5 207 357.5h166.5v-738h-139v545.5l-184.5-331h-99.5l-185 329v-543.5h-139z" />
<glyph unicode="&#x4e;" glyph-name="N" horiz-adv-x="817" d="M95 141v738h111.5l383.5-506v506h132v-738h-111.5l-382 498v-498h-133.5z" />
<glyph unicode="&#x4f;" glyph-name="O" horiz-adv-x="803" d="M405 128q-217 0-286 108-39 60-39 155.5v231q0 155.5 96.5 217.5 79.5 51 230.5 51.5 210.5 0 278-115 38-64.5 38-161.5v-215.5q0-151-95-218-76-53.5-223-53.5zM273.5 273.5q44.5-29 132.75-29t128 28.75 39.75 101.75v267.5q0 72-40.5 102.25t-127.25 30.25-132-30-45.25-102.5v-267.5q0-72.5 44.5-101.5z" />
<glyph unicode="&#x50;" glyph-name="P" horiz-adv-x="668" d="M243.5 504h150q54 0 73.25 30.75t19.25 101.25q0 101-44.5 127-17.5 10-43 10.5h-155v-269.5zM95 141v738h289.5q123.5 0 182-56t58.5-182.5-56.25-185.75-198.75-59.25h-126.5v-254.5h-148.5z" />
<glyph unicode="&#x51;" glyph-name="Q" horiz-adv-x="803" d="M273.5 273q44.5-29 132.75-29t128 28.75 39.75 101.75v267.5q0 72-40.5 102.25t-127.25 30.25-132-30-45.25-102.5v-267.5q0-72.5 44.5-101.5zM505-126l-161 256q-223.5 18-257 184-7 34.5-7 77v231q0 156 96.5 218 79.5 51 230.5 51 210.5 0 278-115 38-64.5 38-161.5v-215.5q0-135-75-202-59.5-53-171-65.5l122.5-203.5z" />
<glyph unicode="&#x52;" glyph-name="R" horiz-adv-x="742" d="M243.5 538.5h182.5q52.5 0 72.25 29.75t19.75 90.25q0 115-86 115h-188.5v-235zM95 141v738h318.5q143 0 194.75-58t51.75-157.25-28.75-144.5-79.75-65.25l142.5-313h-154l-129.5 291.5h-167v-291.5h-148.5z" />
<glyph unicode="&#x53;" glyph-name="S" horiz-adv-x="641" d="M337 128q-68.5 0-145 18t-132 49l51 108.5q111-59 229.5-59 59.5 0 84 24.5t24.5 73.5q0 9.5-2 28.5-4.5 45-100 73.5l-126 37q-58 17-93 48.75t-47.5 69.5-12.5 88.25q0 101.5 72.25 152.5t184.25 51q148 0 247-57.5l-42-104.5q-96.5 45.5-192 45.5-120 0-123.5-73.5v-7.5q0-37.5 18.75-58.5t76.75-38.5l125.5-37.5q76-23 112.75-72.5t36.75-140.75-58.25-154.75-189.25-63.5z" />
<glyph unicode="&#x54;" glyph-name="T" horiz-adv-x="597" d="M224.5 141v625h-205.5v113h559v-113h-205.5v-625h-148z" />
<glyph unicode="&#x55;" glyph-name="U" horiz-adv-x="787" d="M397 128q-208 0-272.5 99-36.5 56-36.5 148v504.5h148.5v-511q0-69.5 39.75-96.75t121.25-27.25 117.25 27 35.75 97v511h148.5v-498.5q0-147-87-205-73-48-215-48z" />
<glyph unicode="&#x56;" glyph-name="V" horiz-adv-x="742" d="M282 141l-262 738h159l195-596.5 189 596.5h159l-260-738h-180z" />
<glyph unicode="&#x57;" glyph-name="W" horiz-adv-x="977" d="M211.5 141l-191.5 738h144l127.5-510.5 129.5 510.5h125.5l148-505 120 505h142.5l-191-738h-124.5l-155 526.5-142-526.5h-133z" />
<glyph unicode="&#x58;" glyph-name="X" horiz-adv-x="676" d="M19 141l237.5 374-231.5 364h154.5l155-239.5 150 239.5h164l-233.5-363.5 242-374.5h-163.5l-159 250.5-160.5-250.5h-155z" />
<glyph unicode="&#x59;" glyph-name="Y" horiz-adv-x="652" d="M254.5 141v283.5l-254.5 454.5h156.5l173-308.5 172.5 308.5h150l-249.5-454.5v-283.5h-148z" />
<glyph unicode="&#x5a;" glyph-name="Z" horiz-adv-x="592" d="M63 141v88.5l310 540.5h-296v109h468v-89.5l-309-543.5h315v-105h-488z" />
<glyph unicode="&#x5b;" glyph-name="bracketleft" horiz-adv-x="421" d="M106 96.5v840.5h241v-80.5h-104.5v-679.5h104.5v-80.5h-241z" />
<glyph unicode="&#x5c;" glyph-name="backslash" d="M337.5 141l-284.5 758h121.5l284.5-758h-121.5z" />
<glyph unicode="&#x5d;" glyph-name="bracketright" horiz-adv-x="421" d="M73 96.5v80.5h105v679.5h-105v80.5h241v-840.5h-241z" />
<glyph unicode="&#x5e;" glyph-name="asciicircum" horiz-adv-x="629" d="M40 396.5l203 386h129.5l204-386h-113.5l-152 300.5-152.5-300.5h-118.5z" />
<glyph unicode="&#x5f;" glyph-name="underscore" horiz-adv-x="452" d="M4 125v87.5h441.5v-87.5h-441.5z" />
<glyph unicode="&#x60;" glyph-name="grave" horiz-adv-x="278" d="M158 719.5l-118.5 182.5h133.5l60.5-182.5h-75.5z" />
<glyph unicode="&#x61;" glyph-name="a" horiz-adv-x="587" d="M191.5 288q0-64.5 70-64.5 27.5 0 58 14.5t48 41v134q-24-19.5-84.5-41.75t-76-41-15.5-42.25zM311.25 149.75q-43.75-20.25-106.25-20.25t-105.75 40.5-43.25 103.5 39.25 101 150.25 73q67.5 21.5 94.75 38.5t27.25 47q0 62-84.5 61.5-47.5 0-65.5-18.25t-18-52.75v-21h-127.5v16q0 80.5 53.5 125.75t164.5 45.25 161.25-47 50.25-135v-212.5q0-36 9-47.5t34.5-11.5l-5.5-99h-28.5q-55.5 0-86.5 15.25t-46 48.25q-23.5-30.5-67.25-50.75z" />
<glyph unicode="&#x62;" glyph-name="b" horiz-adv-x="603" d="M405 520q0 74.5-92 74.5-45 0-97-25v-320.5q31-24 83-24 106 0 106 77.5v217.5zM482.75 178q-58.25-48.5-144-48.5t-151.75 44l-13.5-32.5h-93.5v758h136v-238q54 28.5 109 28.5 135.5 0 185-70 31-44 31-102v-212q0-79-58.25-127.5z" />
<glyph unicode="&#x63;" glyph-name="c" horiz-adv-x="554" d="M292 129.5q-156 0-201.5 70-28.5 43-28.5 105v215q0 80.5 58.5 125.25t166.5 44.75 162.75-42.75 54.75-156.25l-128-10q0 72.5-17.5 93.5-10.5 13-26 17-15 3.5-52 3.5-83 0-83-75.5v-217q0-42 21.75-59.5t64.5-17.5 60.25 7.75 25 29.5 7.5 68.75h127q-1-59-11-96-10-36-35-61-45-44-166-44.5z" />
<glyph unicode="&#x64;" glyph-name="d" horiz-adv-x="599" d="M221.5 243q23.5-18 75.5-18t88 21.5v329.5q-39 18.5-88 18.5t-74-17.25-25-56.75v-219.5q0-40 23.5-58zM275.5 129.5q-107 0-160.25 45.25t-53.25 128.25v214.5q0 78.5 55.25 125.25t167.75 46.75q48 0 100-19v228.5h136v-758h-92l-14.5 31.5q-61.5-43-139-43z" />
<glyph unicode="&#x65;" glyph-name="e" horiz-adv-x="575" d="M198 466.5h193v63q0 48.5-39 59.5-20.5 6-62.25 5.75t-66.75-14.25-25-53.5v-60.5zM201 138.5q-40 8.5-72 28.5-67 41-67 142v209.5q0 81 61.5 126t167.5 45q228.5 0 228.5-176v-130h-321.5v-87.5q0-44.5 22-58.25t74.5-13.75 62 5q22.5 12.5 29 30.25t7.5 46.75h126q-3-124-87.5-157-49.5-19-120-19.25t-110.5 8.75z" />
<glyph unicode="&#x66;" glyph-name="f" horiz-adv-x="385" d="M114.5 141v450.5h-71.5v86.5h71.5v25.5q0 97.5 43.5 146.5t137.5 49h63l3.5-94.5h-42q-40.5 0-55-19.25t-14.5-51.25v-56h107v-86.5h-107v-450.5h-136z" />
<glyph unicode="&#x67;" glyph-name="g" horiz-adv-x="606" d="M294 247.5q66.5 0 99.5 24v285.5q0 12-28.5 25-29 12.5-74 12.5-93 0-93-75v-200.5q0-71.5 96-71.5zM287-79.5q-118.5 0-177.5 28l28 92.5q75.5-21 139.25-21t90.25 25.25 26.5 80.75v59q-47-28-133.25-28t-142.25 44.25-56 122.75v192.5q0 72.5 47.25 122.75t157.25 50.25q42.5 0 83.25-14.25t67.25-35.75l11.5 39h101v-543.5q0-214.5-242.5-214.5z" />
<glyph unicode="&#x68;" glyph-name="h" horiz-adv-x="627" d="M81 141v757.5h136v-272.5q17 28 64.5 45.75t113.75 17.75 111-41.25 44.75-109.75v-397.5h-136v378q0 69-91.5 69-41 0-73.75-20.75t-32.75-57.25v-369h-136z" />
<glyph unicode="&#x69;" glyph-name="i" horiz-adv-x="299" d="M83 754.5v120.5h136v-120.5h-136zM83 141v537h136v-537h-136z" />
<glyph unicode="&#x6a;" glyph-name="j" horiz-adv-x="319" d="M102 754.5v120.5h136v-120.5h-136zM1.5-40l-6.5 97h22q86 0 86 89v532h136v-538.5q0-84-45.5-131.75t-141.5-47.75h-50.5z" />
<glyph unicode="&#x6b;" glyph-name="k" horiz-adv-x="600" d="M81 141v758h136v-457l212.5 236h155l-202-231.5 211-305.5h-148.5l-168 248.5-60-61.5v-187h-136z" />
<glyph unicode="&#x6c;" glyph-name="l" horiz-adv-x="354" d="M263.5 135q-92.5 0-137 42t-44.5 140.5v581h136v-579q0-45 21-64.25t75-19.25h17l-10.5-101h-57z" />
<glyph unicode="&#x6d;" glyph-name="m" horiz-adv-x="947" d="M80 141v537h136v-48q28 29 72.75 44.25t85.75 15.25q107.5 0 147.5-66.5 66.5 66.5 178.5 66.5 77 0 123.75-41.75t46.75-109.75v-397h-136v381q0 39-20.25 53.25t-58.5 14.25-73.5-20-38.25-53.5v-375h-136v381q0 39-21.5 53.25t-60.75 14.25-74.75-21.25-35.5-57.75v-369.5h-136z" />
<glyph unicode="&#x6e;" glyph-name="n" horiz-adv-x="627" d="M415 518.5q0 69.5-94.5 69.5-40.5 0-72.5-21.25t-32-58.25v-367.5h-136v537h136v-47.5q68.5 60 160 60t133.25-47 41.75-117.5v-385h-136v377.5z" />
<glyph unicode="&#x6f;" glyph-name="o" horiz-adv-x="590" d="M295 129.5q-233 0-233 174v211.5q0 82.5 61.25 128.5t171.5 46 171.75-46.25 61.5-128.25v-211.5q0-129.5-123-162-46-12-110-12zM295 224q97 0 97 73.5v223.5q0 39.5-24.5 56.5t-72.5 17q-97 0-97-73.5v-223.5q0-39.5 24.25-56.5t72.75-17z" />
<glyph unicode="&#x70;" glyph-name="p" horiz-adv-x="601" d="M307 224q96 0 96 77v217.5q0 76-91.5 76-30.5 0-56.5-10t-39-23v-314q44-23.5 91-23.5zM80-64v742h95l13.5-35q63.5 46.5 152.75 46.5t143.5-47.25 54.25-125.75v-212.5q0-72-55-123.25t-165.5-51.25q-57.5 0-102.5 20v-213.5h-136z" />
<glyph unicode="&#x71;" glyph-name="q" horiz-adv-x="597" d="M198 295q0-71 85-71 61 0 91 18.5 10 6 11 8.5v309.5q-22 34-91 34-96 0-96-75.5v-224zM385-64v221.5q-49-28-110-28-116.5 0-164.75 49.25t-48.25 120.75v216.5q0 79.5 56.25 126.5t153.25 47q40.5 0 77.5-13t61-33l9.5 34.5h101.5v-742h-136z" />
<glyph unicode="&#x72;" glyph-name="r" horiz-adv-x="416" d="M80 141v537h136v-64q12 23 50 41 65.5 31.5 126.5 31.5 7 0 13-0.5l-3-115.5q-89.5-4.5-148.5-33.5-33-16-38-36v-360h-136z" />
<glyph unicode="&#x73;" glyph-name="s" horiz-adv-x="497" d="M263.5 129.5q-127 0-209.5 42l27.5 92.5q94-40 177-40 63.5 0 72 56.5 1 7 1 13 0 40.5-45.5 55l-118 37q-60.5 19-85.75 57t-25.25 92.5v4q1 150.5 206 150.5 101 0 181-45.5l-32-84.5q-25.5 13.5-69.25 24.25t-82.25 10.75-56-13.75-17.5-47 37-44.75l111-35q66.5-21 93.75-59t27.25-106-50-113.75-142.5-45.75z" />
<glyph unicode="&#x74;" glyph-name="t" horiz-adv-x="407" d="M332 135q-122.5 0-175.5 37t-53 139.5v280h-71.5v86.5h75.5l12.5 172.5h119.5v-172.5h127.5v-86.5h-127.5v-270.5q0-50 23.75-67.5t91.25-17.5h16l-5-101h-33.5z" />
<glyph unicode="&#x75;" glyph-name="u" horiz-adv-x="624" d="M413.5 200q-16-33-62-51.75t-102-18.75q-80.5 0-127 44.5t-46.5 112.5v391.5h136v-369.5q0-38.5 27.25-57.5t66.75-19 71.5 21.25 32 62.75v362h136v-537h-128z" />
<glyph unicode="&#x76;" glyph-name="v" horiz-adv-x="552" d="M208 141l-191 537h135.5l128-404 125.5 404h128.5l-182-537h-144.5z" />
<glyph unicode="&#x77;" glyph-name="w" horiz-adv-x="824" d="M171.5 141l-148.5 537h127l96-385 112.5 385h110.5l116-389.5 89.5 389.5h126.5l-143-537h-133l-110 370.5-114.5-370.5h-129z" />
<glyph unicode="&#x78;" glyph-name="x" horiz-adv-x="541" d="M18 141l185 270-184.5 267h142l111.5-168 111.5 168h138.5l-180-269 181-268h-135.5l-113 169-112-169h-144.5z" />
<glyph unicode="&#x79;" glyph-name="y" horiz-adv-x="542" d="M74-101.5l-10 112.5q71.5 14 104.25 54.75t50.25 93.25l-202 519h131l139.5-360.5 111.5 360.5h135l-163-467q-42-120.5-76.5-173.25t-64-76.75q-63-51-156-62.5z" />
<glyph unicode="&#x7a;" glyph-name="z" horiz-adv-x="453" d="M52 141v83.5l211 360.5h-206v93h352v-82l-209.5-360h207v-95h-354.5z" />
<glyph unicode="&#x7b;" glyph-name="braceleft" horiz-adv-x="496" d="M423 77q-71 0-115.75 11.25t-71.25 39.25-36.5 68.75-10 105.75v43.5q0 60-20.25 76.5t-75.25 16.5v119q56 0 75.75 20.5t19.75 81v51.5q0 73.5 9 103.5t17.5 45 30.5 31q39.5 29 176.5 29v-87q-33.5 0-51.75-3.25t-28-14.25-12-25.25-2.25-43.25v-65q0-153.5-80-179 43.5-15.5 62-57.75t18.5-118.75v-58.5q0-32 2.5-48.5t11.75-30.5 28-19 51.25-5v-87z" />
<glyph unicode="&#x7c;" glyph-name="bar" horiz-adv-x="384" d="M131 78v867h122v-867h-122z" />
<glyph unicode="&#x7d;" glyph-name="braceright" horiz-adv-x="496" d="M181.5 321q0 153.5 80 179-43.5 15.5-62 57.5t-18.5 119v58q0 74.5-22.75 88.75t-70.75 14.25v87q71 0 115.75-11.25t71.25-39 36.5-68.5 10-105.75v-44q0-59 20.5-77 12-10 28.5-13t46-3v-119q-55.5 0-75.25-20.5t-19.75-80.5v-52q0-73.5-9-103.5t-17.5-45-30.5-31q-39.5-29-176.5-29 0 43.5-0.25 65.25t0.25 21.75q33.5 0 51.75 3.25t28 14.25 12 25.25 2.25 43.25v65.5z" />
<glyph unicode="&#x7e;" glyph-name="asciitilde" d="M166 874q26 0 55.5-13t50.5-29q56-42 83-42t42.25 22.75 15.25 53.25h54.5q0-69.5-35-114.5t-85.25-45-107.5 42.25-83.5 42.25-41.5-23-15.25-53.5h-54q0 70 34.75 114.75t86.25 44.75z" />
<glyph unicode="&#x7f;" glyph-name="uniFB04" horiz-adv-x="1117" d="M1026.5 135q-91.5 0-133.5 41.75t-42 140.75v487h-148q-41 0-55.25-16.25t-14.25-47.25v-63h107v-86.5h-107v-450.5h-136.5v450.5h-246.5v-450.5h-136.5v450.5h-71v86.5h71v25.5q0 97.5 43.75 146.5t137.75 49h63l6.5-94.5h-45q-41 0-55.25-16.25t-14.25-47.25v-63h246.5v25.5q0 97.5 43.75 146.5t137.75 49l308.5-0.5v-579q0-46 18.5-64.75t71.5-18.75h17l-10.5-101h-57z" />
<glyph unicode="&#x80;" glyph-name="uniFB03" horiz-adv-x="1096" d="M877 754.5v120.5h136v-120.5h-136zM524 141v450.5h-260.5v-450.5h-136.5v450.5h-71v86.5h71v25.5q0 97.5 43.75 146.5t137.75 49h63l6.5-94.5h-45q-41 0-55.25-16.25t-14.25-47.25v-63h260.5v25.5q0 97.5 43.75 146.5t137.75 49h63l6.5-94.5h-45q-41 0-55.25-16.25t-14.25-47.25v-63h352.5v-537h-136v450.5h-216.5v-450.5h-136.5z" />
<glyph unicode="&#x81;" glyph-name="uniFB02" horiz-adv-x="734" d="M643.5 135q-91.5 0-133.5 41.75t-42 140.75v487h-148q-41 0-55.25-16.25t-14.25-47.25v-63h107v-86.5h-107v-450.5h-136.5v450.5h-71v86.5h71v25.5q0 97.5 43.75 146.5t137.75 49l308.5-0.5v-579q0-46 18.5-64.75t71.5-18.75h17l-10.5-101h-57z" />
<glyph unicode="&#x82;" glyph-name="uniFB01" horiz-adv-x="683" d="M467 754.5v120.5h136v-120.5h-136zM114 141v450.5h-71v86.5h71v25.5q0 97.5 43.75 146.5t137.75 49h63l6.5-94.5h-45q-41 0-55.25-16.25t-14.25-47.25v-63h352.5v-537h-136v450.5h-216.5v-450.5h-136.5z" />
<glyph unicode="&#x83;" glyph-name="uniFB00" horiz-adv-x="785" d="M511 141v450.5h-260.5v-450.5h-136.5v450.5h-71v86.5h71v25.5q0 97.5 43.75 146.5t137.75 49h63l6.5-94.5h-45q-41 0-55.25-16.25t-14.25-47.25v-63h260.5v25.5q0 97.5 43.75 146.5t137.75 49h63l6.5-94.5h-45q-41 0-55.25-16.25t-14.25-47.25v-63h107v-86.5h-107v-450.5h-136.5z" />
<glyph unicode="&#xa1;" glyph-name="exclamdown" horiz-adv-x="324" d="M184 472q41.5-474.5 41.5-533.5h-129.5q0 53.5 50 533.5h38zM228 677v-122.5h-125v122.5h125z" />
<glyph unicode="&#xa2;" glyph-name="cent" horiz-adv-x="554" d="M269 130q-176 5.5-202 122-5 23.5-5 52.5v215q0 77.5 54.25 121.75t152.75 47.75v97.5h46.5v-98q97-5 143-49.75t46-148.25l-128-10q-0.5 63-12.75 86.25t-48.25 26.75v-367.5q36.5 3.5 49 24.5t12.5 80.5h127q-1-55.5-10-91t-30.5-60.5-57-36.25-91-13.25v-96h-46.5v96zM269 593.5q-71-7-71-74.5v-217q0-37 17.25-54.75t53.75-21.25v367.5z" />
<glyph unicode="&#xa3;" glyph-name="sterling" horiz-adv-x="643" d="M103 141l25 310.5h-61v95.5h68.5l10 124.5q6.5 111 63.25 169t176.75 58q50.5 0 99.25-14.5t80.25-35.5l-35.5-100.5q-75.5 33.5-131 33.5t-78.5-30.75-27-87.75l-9.5-116h238v-95.5h-246.5l-17-197.5h304v-113h-459z" />
<glyph unicode="&#xa4;" glyph-name="currency" horiz-adv-x="563" d="M208.75 433.25q24.75-28.25 70.75-28.25t70.25 28.25 24.25 69.25-24.25 69.25-70.25 28.25-70.75-28.25-24.75-69.25 24.75-69.25zM405.5 383.5q-48-52-126-52t-125 49.5l-67.5-48.5-24 42 64 46q-19 37-19 81.75t20 84.75l-66 47.5 26.5 40 67-49.5q47 48 124.75 48t124.25-50l71.5 51.5 23.5-40.5-68.5-50q18.5-37 18.5-81.75t-17.5-79.75l69-49-26-40.5z" />
<glyph unicode="&#xa5;" glyph-name="yen" horiz-adv-x="652" d="M402.5 325h126.5v-80h-126.5v-104h-148v104h-125.5v80h125.5v64h-125.5v80h100.5l-229.5 410h156.5l173-308.5 172.5 308.5h150l-225-410h102v-80h-126.5v-64z" />
<glyph unicode="&#xa6;" glyph-name="brokenbar" horiz-adv-x="385" d="M140 541v338h104.5v-338h-104.5zM140 81v355h104.5v-355h-104.5z" />
<glyph unicode="&#xa7;" glyph-name="section" horiz-adv-x="543" d="M369 430.5q11 16 11 37.25t-8.5 39.5-41 32.25l-150.5 72q-6.5-4.5-14-18.75t-7.5-31.25q0-35.5 43-54zM482 498q0-55-53.5-104.5 42-37 42-104.5t-50-113.25-142.5-45.75q-134 0-216 67l47 84.5q81.5-53 149-53 20.5-0.5 39.5 4.5 47 12 47 51 0 20.5-11.25 34.5t-39.75 28l-130.5 63q-46.5 22.5-71.75 55.75t-25.25 68.25q0 65.5 55 107-46 37.5-46 106t50.75 105.75 126.25 37.25q131 0 210-60l-42-79.5q-78.5 45-141 45-77 0-77-51 0-19 9.75-29.75t31.75-21.25l130.5-61.5q62.5-29.5 89-72 19-30.5 19-61.5z" />
<glyph unicode="&#xa8;" glyph-name="dieresis" horiz-adv-x="484" d="M312 763v116.5h132.5v-116.5h-132.5zM57.5 763v116.5h132v-116.5h-132z" />
<glyph unicode="&#xa9;" glyph-name="copyright" horiz-adv-x="888" d="M589.25 162.25q-68.25-28.25-157.75-28.25t-173.75 48-133 132.5-48.75 187.25 48.75 187 133 132.25 186.5 48 186.75-48 132.75-132.25 48.25-174.25-28.5-158.25-77.25-117-117-77zM283.25 223.75q72.25-41.75 162-41.75t161.75 41.75 112 114.75 40 163.25-40 163.25-112 114.75-161.75 41.75-162-41.75-112.5-114.75-40.25-163 40.25-163.25 112.5-115zM309.25 325q-35.75 40.5-35.75 111v139q0 118 87.5 146 36 11 87 11 101.5 0 132.75-43.75t31.25-116.75v-12.5l-58-5v32q0 56.5-23.75 78.5t-82 22-86.5-22.75-28.25-77.75v-159.5q0-54.5 28-76t87.25-21.5 82.25 20.75 23 76.75v30.5h58v-17q0-58.5-14-85.75t-31.5-40.25q-38.5-29-130-29.25t-127.25 40.25z" />
<glyph unicode="&#xaa;" glyph-name="ordfeminine" d="M172 542q0-59 57-59h0.5q23.5 0 48.5 10.5t38.5 32.5v116q-20-19.5-82.25-38t-62.25-62zM193 399.5l-1 0.5q-55.5 0-90.25 34.5t-34.75 100q0 20 3.75 35.25t18.25 31.75q29 32.5 146 67.5 53 16 60 22.5t14.5 16 7.5 36.75-15.25 41-52.5 13.75-51.75-15.75-14.5-45.25v-18h-102.5v13.5q0 69 43 107.5 42.5 39 132.5 39 171 0 171-156v-177q0-32 8.5-43.75t34.5-11.75l-9-85h-42.5q-41.5 0-60 15t-32 47.5q-20.5-28.5-55.25-49t-78.25-20.5z" />
<glyph unicode="&#xab;" glyph-name="guillemotleft" d="M380.5 181l-140 225 136.5 225 72.5-35-102.5-190 102.5-190zM173.5 181l-140 225 136.5 225 73.5-35-103.5-190 103.5-190z" />
<glyph unicode="&#xac;" glyph-name="logicalnot" d="M352.5 254v180.5h-288v85h362v-265.5h-74z" />
<glyph unicode="&#xad;" glyph-name="uni00AD" horiz-adv-x="388" d="M65.5 341v95.5h262.5v-95.5h-262.5z" />
<glyph unicode="&#xae;" glyph-name="registered" horiz-adv-x="888" d="M589.25 162.25q-68.25-28.25-157.75-28.25t-173.75 48-133 132.5-48.75 187.25 48.75 187 133 132.25 186.5 48 186.75-48 132.75-132.25 48.25-174.25-28.5-158.25-77.25-117-117-77zM283.25 223.75q72.25-41.75 162-41.75t161.75 41.75 112 114.75 40 163.25-40 163.25-112 114.75-161.75 41.75-162-41.75-112.5-114.75-40.25-163 40.25-163.25 112.5-115zM361.5 512h133.5q67 0 68 67.5v12q0 80.5-63.5 80.5h-138v-160zM296 300.5v417h201.5q128.5 0 131.5-122.5v-7q0-93.5-76-114l92-173.5h-64l-90 166.5h-129.5v-166.5h-65.5z" />
<glyph unicode="&#xaf;" glyph-name="macron" horiz-adv-x="256" d="M-3.5 766.5v78.5h262.5v-78.5h-262.5z" />
<glyph unicode="&#xb0;" glyph-name="degree" horiz-adv-x="487" d="M64 732q0 67.5 47.75 116t132.25 48.5 131.75-48.5 47.25-116.75-47.25-116.75-133-48.5-132.25 49.25-46.5 116.75zM169.75 664.25q25.75-27.25 74.25-27.25t74.25 27.25 25.75 67-25.75 67.25-74.25 27.5-74.25-27.5-25.75-67.25 25.75-67z" />
<glyph unicode="&#xb1;" glyph-name="plusminus" d="M85.5 141v82.5h341v-82.5h-341zM214.5 304v132.5h-129v82h129v131.5h83v-131.5h129v-82h-129v-132.5h-83z" />
<glyph unicode="&#xb3;" glyph-name="uni00B3" horiz-adv-x="417" d="M208.5 453q48 0 48 67.5 0 31.5-18 45.25t-67.5 13.75v61q65.5-0.5 77 25.5 5.5 12 5.5 35.5 0 60-46 60-51.5 0-51.5-72h-84q0.5 66.5 36.25 99.75t97 33.25 97-31.75 35.75-89.25q0-70.5-67.5-91.5 70.5-21.5 70.5-94.5 0-59.5-36-92t-99.75-32.5-99 33.5-36.25 101.5h84.5q1.5-73 54-73z" />
<glyph unicode="&#xb4;" glyph-name="acute" horiz-adv-x="277" d="M53 719.5l57 182.5h134l-116.5-182.5h-74.5z" />
<glyph unicode="&#xb5;" glyph-name="uni00B5" horiz-adv-x="623" d="M359.5 152q-33.5-20.5-75.5-20.5t-84 10.5v-119h-126v655h136v-383q0-38 26.75-54.5t66-16.5 72 20.25 32.75 55.25v378.5h136.5v-537h-133.5l-3 67.5q-14.5-36-48-56.5z" />
<glyph unicode="&#xb6;" glyph-name="paragraph" horiz-adv-x="611" d="M224 141v429q-76.5 0.5-126.25 41.25t-49.75 116.25q-0.5 111.5 113.5 142.5 32 9 70 9h280v-738h-86v667h-115.5v-667h-86z" />
<glyph unicode="&#xb7;" glyph-name="periodcentered" horiz-adv-x="256" d="M66 531v122.5h124v-122.5h-124z" />
<glyph unicode="&#xb8;" glyph-name="cedilla" horiz-adv-x="256" d="M107.5-106q-25 0-47.5 4.5v58.5q17-3.5 39-3.5t37 11.75 15 32.75-19 38.5-53.5 18.5v86h38l3-50.5q52.5-9.5 81.5-39.25t29-66.75-32-63.75-90.5-26.75z" />
<glyph unicode="&#xba;" glyph-name="ordmasculine" d="M256.5 397q-188.5 0-188.5 149.5v182q0 70.5 49.25 110.25t138.5 39.75 138.75-39.75 49.5-110.25v-182q0-72.5-43.25-110.75t-144.25-38.75zM254.5 478.5h1q78 0 78 63.5v192.5q0 34-19.75 48.75t-58.75 14.75q-79 0-79-63.5v-192.5q0-34 19.5-48.75t59-14.75z" />
<glyph unicode="&#xbb;" glyph-name="guillemotright" d="M356.5 181l-73.5 35 103.5 190-103.5 190 70 35 140-225zM149.5 181l-72.5 35 102.5 190-102.5 190 69 35 140-225z" />
<glyph unicode="&#xbc;" glyph-name="onequarter" horiz-adv-x="1217" d="M424.5 141l320.5 752.5h87l-320.5-752.5h-87zM989 141v105h-250.5v79.5l140 352.5h95.5l-134.5-350.5h149.5v121h79.5v-121h84v-81.5h-84v-105h-79.5zM65.5 352l-0.5 73.5h134v374.5l-126-19.5-9 72.5 168 26.5h73v-454h123v-73.5h-362.5z" />
<glyph unicode="&#xbd;" glyph-name="onehalf" horiz-adv-x="1290" d="M861.5 140l-22.5 80.5 177.5 179.5q35 35 51 63.5t16.5 63q0 34.5-16.5 52.5-16 17.5-59.5 17.5t-58.25-21.25-14.75-81.25h-109q0 97 41 139.75t145.5 42.75q178 0 178-152 0-53-27.25-96t-80.25-94.5l-116.5-113h218.5v-81h-323.5zM439.5 141l320.5 752.5h87l-320.5-752.5h-87zM65.5 352l-0.5 73.5h134v374.5l-126-19.5-9 72.5 168 26.5h73v-454h123v-73.5h-362.5z" />
<glyph unicode="&#xbe;" glyph-name="threequarters" horiz-adv-x="1441" d="M401.5 636q82-22 82-115 0-73-38.25-117.25t-138.25-44.25-141.25 39-43.25 129h92.5q1-59.5 23.25-75.25t71-15.75 64.5 19.5 15.75 56.5-8 53.5q-16 33.5-100.5 33.5v71q85-0.5 98 26.5 8 16 7.75 49.5t-18.25 50-67.5 16.5-66.75-18-17.25-73v-3h-92.5q0 98 48.25 134t134 36 129-36.25 43.25-105.5-37-95.25q-16-11-40.5-16zM1009 141v105h-250.5v79.5l140 352.5h95.5l-134.5-350.5h149.5v121h79.5v-121h84v-81.5h-84v-105h-79.5zM444.5 141l320.5 752.5h87l-320.5-752.5h-87z" />
<glyph unicode="&#xbf;" glyph-name="questiondown" horiz-adv-x="622" d="M417 801.5v-122.5h-124.5v122.5h124.5zM409 586l-124-154.5q-66.5-83.5-66.5-139.75t8-76.5 19-30.25q24.5-23 75.75-23t68.25 11.25 24 20.25q16 20 16 84.5v42.5h137v-37q0-103-27.25-147.5t-78.75-64.75-117.5-20.25q-66.5 0.5-102.5 6.5-69.5 12-106.25 43.75t-49.25 73.25-12.5 105 30.5 118.25 100.5 112.75l91 75.5h114.5z" />
<glyph unicode="&#xc0;" glyph-name="Agrave" horiz-adv-x="756" d="M340 983.5l-118.5 182.5h133.5l60.5-182.5h-75.5zM262.5 380.5h231l-113.5 388zM35 141l243 738h197l246-738h-157.5l-41.5 140.5h-289l-43-140.5h-155z" />
<glyph unicode="&#xc1;" glyph-name="Aacute" horiz-adv-x="756" d="M341 983.5l57 182.5h134l-116.5-182.5h-74.5zM262.5 380.5h231l-113.5 388zM35 141l243 738h197l246-738h-157.5l-41.5 140.5h-289l-43-140.5h-155z" />
<glyph unicode="&#xc2;" glyph-name="Acircumflex" horiz-adv-x="756" d="M223 983.5l117 150h81.5l111-150h-87.5l-64 87.5-68-87.5h-90zM262.5 380.5h231l-113.5 388zM35 141l243 738h197l246-738h-157.5l-41.5 140.5h-289l-43-140.5h-155z" />
<glyph unicode="&#xc3;" glyph-name="Atilde" horiz-adv-x="756" d="M322.5 983.5q-100 0-100 130h59q0-43 31.5-43 11.5 0 31 17.5 38 33.5 89 33.5 100 0 100-130h-59q0 43.5-28 43.5-12.5 0-33.5-18-40-34-90-33.5zM262.5 380.5h231l-113.5 388zM35 141l243 738h197l246-738h-157.5l-41.5 140.5h-289l-43-140.5h-155z" />
<glyph unicode="&#xc4;" glyph-name="Adieresis" horiz-adv-x="756" d="M439 983.5v116.5h132.5v-116.5h-132.5zM184.5 983.5v116.5h132v-116.5h-132zM262.5 380.5h231l-113.5 388zM35 141l243 738h197l246-738h-157.5l-41.5 140.5h-289l-43-140.5h-155z" />
<glyph unicode="&#xc5;" glyph-name="Aring" horiz-adv-x="756" d="M378 884.5q-54 0-84.5 28t-30.5 78.5 30.5 78.25 84.5 27.75 84.5-27.75 30.5-78.25-30.5-78.5-84.5-28zM378 929.5q59 0 59 61.75t-59 61.75-59-61.75 59-61.75zM262.5 380.5h231l-113.5 388zM35 141l243 738h197l246-738h-157.5l-41.5 140.5h-289l-43-140.5h-155z" />
<glyph unicode="&#xc6;" glyph-name="AE" horiz-adv-x="917" d="M263.5 379.5h183v386h-68zM196.5 141h-155l228 738.5h580.5v-114h-263.5v-195.5h228.5v-106.5h-228.5v-209h268.5v-113.5h-408.5v140.5h-210.5z" />
<glyph unicode="&#xc7;" glyph-name="Ccedilla" horiz-adv-x="745" d="M390.5-111q-25 0-47.5 4.5v58.5q17-3.5 39-3.5t37 11.75 15 32.75-19 38.5-53.5 18.5v86h38l3-50.5q52.5-9.5 81.5-39.25t29-66.75-32-63.75-90.5-26.75zM257 141q-56 13-89.75 34.5t-53.75 55.25-26.75 69.25-6.75 83v246.5q0 132 53.5 185 53.5 53.5 142 68.5 50 9 113 8.5 228.5 0 272.5-125 20-56 20-134v-9l-145.5-17v37.5q0 77-30.25 104t-115.75 27-123.25-27.25-37.75-100.75v-279q0-74 38.75-98.75t123.25-24.75q44.5 0 70.5 4.75t43.75 19.25 24.25 38.5 6.5 64v23.5h145.5v-13.5q0-109.5-32.25-158.25t-92.75-71.75-151.75-23-147.25 13z" />
<glyph unicode="&#xc8;" glyph-name="Egrave" horiz-adv-x="647" d="M302 983.5l-118.5 182.5h133.5l60.5-182.5h-75.5zM95 141v738h483.5v-112h-335.5v-196h297.5v-107h-297.5v-211h341v-112h-489z" />
<glyph unicode="&#xc9;" glyph-name="Eacute" horiz-adv-x="647" d="M302 983.5l57 182.5h134l-116.5-182.5h-74.5zM95 141v738h483.5v-112h-335.5v-196h297.5v-107h-297.5v-211h341v-112h-489z" />
<glyph unicode="&#xca;" glyph-name="Ecircumflex" horiz-adv-x="647" d="M185 983.5l117 150h81.5l111-150h-87.5l-64 87.5-68-87.5h-90zM95 141v738h483.5v-112h-335.5v-196h297.5v-107h-297.5v-211h341v-112h-489z" />
<glyph unicode="&#xcb;" glyph-name="Edieresis" horiz-adv-x="647" d="M400.5 983.5v116.5h132.5v-116.5h-132.5zM146 983.5v116.5h132v-116.5h-132zM95 141v738h483.5v-112h-335.5v-196h297.5v-107h-297.5v-211h341v-112h-489z" />
<glyph unicode="&#xcc;" glyph-name="Igrave" horiz-adv-x="574" d="M249 983.5l-118.5 182.5h133.5l60.5-182.5h-75.5zM79 141v111h134.5v516.5h-134.5v110.5h416v-110.5h-133.5v-516.5h133.5v-111h-416z" />
<glyph unicode="&#xcd;" glyph-name="Iacute" horiz-adv-x="574" d="M250 983.5l57 182.5h134l-116.5-182.5h-74.5zM79 141v111h134.5v516.5h-134.5v110.5h416v-110.5h-133.5v-516.5h133.5v-111h-416z" />
<glyph unicode="&#xce;" glyph-name="Icircumflex" horiz-adv-x="574" d="M132 983.5l117 150h81.5l111-150h-87.5l-64 87.5-68-87.5h-90zM79 141v111h134.5v516.5h-134.5v110.5h416v-110.5h-133.5v-516.5h133.5v-111h-416z" />
<glyph unicode="&#xcf;" glyph-name="Idieresis" horiz-adv-x="574" d="M348 983.5v116.5h132.5v-116.5h-132.5zM93.5 983.5v116.5h132v-116.5h-132zM79 141v111h134.5v516.5h-134.5v110.5h416v-110.5h-133.5v-516.5h133.5v-111h-416z" />
<glyph unicode="&#xd0;" glyph-name="Eth" horiz-adv-x="784" d="M254.5 256.5h159q76 0 106 28t30 91.5v265q0 62.5-30.75 92.5t-105.25 30h-159v-198.5h153v-75h-153v-233.5zM106 565v314.5h320q178 0 238-105 34-59.5 34-153v-226.5q0-187-142-235.5-54-18.5-129.5-18.5h-320.5v349h-61v75h61z" />
<glyph unicode="&#xd1;" glyph-name="Ntilde" horiz-adv-x="817" d="M353.5 983.5q-100 0-100 130h59q0-43 31.5-43 11.5 0 31 17.5 38 33.5 89 33.5 100 0 100-130h-59q0 43.5-28 43.5-12.5 0-33.5-18-40-34-90-33.5zM95 141v738h111.5l383.5-506v506h132v-738h-111.5l-382 498v-498h-133.5z" />
<glyph unicode="&#xd2;" glyph-name="Ograve" horiz-adv-x="803" d="M364 983.5l-118.5 182.5h133.5l60.5-182.5h-75.5zM405 128q-217 0-286 108-39 60-39 155.5v231q0 155.5 96.5 217.5 79.5 51 230.5 51.5 210.5 0 278-115 38-64.5 38-161.5v-215.5q0-151-95-218-76-53.5-223-53.5zM273.5 273.5q44.5-29 132.75-29t128 28.75 39.75 101.75v267.5q0 72-40.5 102.25t-127.25 30.25-132-30-45.25-102.5v-267.5q0-72.5 44.5-101.5z" />
<glyph unicode="&#xd3;" glyph-name="Oacute" horiz-adv-x="803" d="M364 983.5l57 182.5h134l-116.5-182.5h-74.5zM405 128q-217 0-286 108-39 60-39 155.5v231q0 155.5 96.5 217.5 79.5 51 230.5 51.5 210.5 0 278-115 38-64.5 38-161.5v-215.5q0-151-95-218-76-53.5-223-53.5zM273.5 273.5q44.5-29 132.75-29t128 28.75 39.75 101.75v267.5q0 72-40.5 102.25t-127.25 30.25-132-30-45.25-102.5v-267.5q0-72.5 44.5-101.5z" />
<glyph unicode="&#xd4;" glyph-name="Ocircumflex" horiz-adv-x="803" d="M247 983.5l117 150h81.5l111-150h-87.5l-64 87.5-68-87.5h-90zM405 128q-217 0-286 108-39 60-39 155.5v231q0 155.5 96.5 217.5 79.5 51 230.5 51.5 210.5 0 278-115 38-64.5 38-161.5v-215.5q0-151-95-218-76-53.5-223-53.5zM273.5 273.5q44.5-29 132.75-29t128 28.75 39.75 101.75v267.5q0 72-40.5 102.25t-127.25 30.25-132-30-45.25-102.5v-267.5q0-72.5 44.5-101.5z" />
<glyph unicode="&#xd5;" glyph-name="Otilde" horiz-adv-x="803" d="M346.5 983.5q-100 0-100 130h59q0-43 31.5-43 11.5 0 31 17.5 38 33.5 89 33.5 100 0 100-130h-59q0 43.5-28 43.5-12.5 0-33.5-18-40-34-90-33.5zM405 128q-217 0-286 108-39 60-39 155.5v231q0 155.5 96.5 217.5 79.5 51 230.5 51.5 210.5 0 278-115 38-64.5 38-161.5v-215.5q0-151-95-218-76-53.5-223-53.5zM273.5 273.5q44.5-29 132.75-29t128 28.75 39.75 101.75v267.5q0 72-40.5 102.25t-127.25 30.25-132-30-45.25-102.5v-267.5q0-72.5 44.5-101.5z" />
<glyph unicode="&#xd6;" glyph-name="Odieresis" horiz-adv-x="803" d="M462.5 983.5v116.5h132.5v-116.5h-132.5zM208 983.5v116.5h132v-116.5h-132zM405 128q-217 0-286 108-39 60-39 155.5v231q0 155.5 96.5 217.5 79.5 51 230.5 51.5 210.5 0 278-115 38-64.5 38-161.5v-215.5q0-151-95-218-76-53.5-223-53.5zM273.5 273.5q44.5-29 132.75-29t128 28.75 39.75 101.75v267.5q0 72-40.5 102.25t-127.25 30.25-132-30-45.25-102.5v-267.5q0-72.5 44.5-101.5z" />
<glyph unicode="&#xd7;" glyph-name="multiply" horiz-adv-x="513" d="M132.5 249l-55.5 64 119 116-119 115 55.5 65.5 124-121.5 124 121.5 55-65.5-118.5-115 118.5-116-55-64-124 121z" />
<glyph unicode="&#xd8;" glyph-name="Oslash" horiz-adv-x="815" d="M485 767.5q-32 7.5-75 7.5-87.5 0-132.75-30t-45.25-102.5v-267.5q0-81.5 60.5-111zM571 868q155-54.5 155-253v-215.5q0-151-95-218-76-53.5-221-53.5-68.5 0-118 9.5l-40-105-43.5 11.5 40 104q-95.5 29-130.5 92.75t-35 150.75v231q0 155.5 96.5 217.5 79.5 51 230.5 51.5 66.5 0 118-11.5l42 110 43.5-11.5zM410 244.5q87.5 0 127.25 28.75t39.75 101.75v267.5q0 79-50 109l-191.5-501q29.5-6 74.5-6z" />
<glyph unicode="&#xd9;" glyph-name="Ugrave" horiz-adv-x="787" d="M356 983.5l-118.5 182.5h133.5l60.5-182.5h-75.5zM397 128q-208 0-272.5 99-36.5 56-36.5 148v504.5h148.5v-511q0-69.5 39.75-96.75t121.25-27.25 117.25 27 35.75 97v511h148.5v-498.5q0-147-87-205-73-48-215-48z" />
<glyph unicode="&#xda;" glyph-name="Uacute" horiz-adv-x="787" d="M356 983.5l57 182.5h134l-116.5-182.5h-74.5zM397 128q-208 0-272.5 99-36.5 56-36.5 148v504.5h148.5v-511q0-69.5 39.75-96.75t121.25-27.25 117.25 27 35.75 97v511h148.5v-498.5q0-147-87-205-73-48-215-48z" />
<glyph unicode="&#xdb;" glyph-name="Ucircumflex" horiz-adv-x="787" d="M239 983.5l117 150h81.5l111-150h-87.5l-64 87.5-68-87.5h-90zM397 128q-208 0-272.5 99-36.5 56-36.5 148v504.5h148.5v-511q0-69.5 39.75-96.75t121.25-27.25 117.25 27 35.75 97v511h148.5v-498.5q0-147-87-205-73-48-215-48z" />
<glyph unicode="&#xdc;" glyph-name="Udieresis" horiz-adv-x="787" d="M454.5 983.5v116.5h132.5v-116.5h-132.5zM200 983.5v116.5h132v-116.5h-132zM397 128q-208 0-272.5 99-36.5 56-36.5 148v504.5h148.5v-511q0-69.5 39.75-96.75t121.25-27.25 117.25 27 35.75 97v511h148.5v-498.5q0-147-87-205-73-48-215-48z" />
<glyph unicode="&#xdd;" glyph-name="Yacute" horiz-adv-x="652" d="M289 983.5l57 182.5h134l-116.5-182.5h-74.5zM254.5 141v283.5l-254.5 454.5h156.5l173-308.5 172.5 308.5h150l-249.5-454.5v-283.5h-148z" />
<glyph unicode="&#xde;" glyph-name="Thorn" horiz-adv-x="681" d="M256.5 424.5h156q55 0 72.25 23.25t17.25 88.5-17.5 93.25-67.5 28h-160.5v-233zM108 141v738h148.5v-118h146.5q123.5 0 178.25-45.5t54.75-169q0-88-21.75-136t-74.75-69.75-150.5-21.75h-132.5v-178h-148.5z" />
<glyph unicode="&#xdf;" glyph-name="germandbls" horiz-adv-x="643" d="M436.5 550.5q160.5-47.5 160.5-215.5 0-93-68.5-148.5t-217.5-55.5v94.5q86 0 122.75 33t36.75 93.5v8.5q-2.5 67-39.25 95.5t-113.25 36.5v95q85-0.5 104 69.5 5 18 5 33.5 0 61.5-28.25 85.5t-83.5 24-77.25-24.25-22-70.25v-564.5h-137v559q0 91 57.75 142.75t169.75 51.75q242 0 242-197 0-47-29.5-87.5t-82.5-59.5z" />
<glyph unicode="&#xe0;" glyph-name="agrave" horiz-adv-x="587" d="M263 781.5l-118.5 182.5h133.5l60.5-182.5h-75.5zM191.5 288q0-64.5 70-64.5 27.5 0 58 14.5t48 41v134q-24-19.5-84.5-41.75t-76-41-15.5-42.25zM311.25 149.75q-43.75-20.25-106.25-20.25t-105.75 40.5-43.25 103.5 39.25 101 150.25 73q67.5 21.5 94.75 38.5t27.25 47q0 62-84.5 61.5-47.5 0-65.5-18.25t-18-52.75v-21h-127.5v16q0 80.5 53.5 125.75t164.5 45.25 161.25-47 50.25-135v-212.5q0-36 9-47.5t34.5-11.5l-5.5-99h-28.5q-55.5 0-86.5 15.25t-46 48.25q-23.5-30.5-67.25-50.75z" />
<glyph unicode="&#xe1;" glyph-name="aacute" horiz-adv-x="587" d="M263 781.5l57 182.5h134l-116.5-182.5h-74.5zM191.5 288q0-64.5 70-64.5 27.5 0 58 14.5t48 41v134q-24-19.5-84.5-41.75t-76-41-15.5-42.25zM311.25 149.75q-43.75-20.25-106.25-20.25t-105.75 40.5-43.25 103.5 39.25 101 150.25 73q67.5 21.5 94.75 38.5t27.25 47q0 62-84.5 61.5-47.5 0-65.5-18.25t-18-52.75v-21h-127.5v16q0 80.5 53.5 125.75t164.5 45.25 161.25-47 50.25-135v-212.5q0-36 9-47.5t34.5-11.5l-5.5-99h-28.5q-55.5 0-86.5 15.25t-46 48.25q-23.5-30.5-67.25-50.75z" />
<glyph unicode="&#xe2;" glyph-name="acircumflex" horiz-adv-x="587" d="M146 781.5l117 150h81.5l111-150h-87.5l-64 87.5-68-87.5h-90zM191.5 288q0-64.5 70-64.5 27.5 0 58 14.5t48 41v134q-24-19.5-84.5-41.75t-76-41-15.5-42.25zM311.25 149.75q-43.75-20.25-106.25-20.25t-105.75 40.5-43.25 103.5 39.25 101 150.25 73q67.5 21.5 94.75 38.5t27.25 47q0 62-84.5 61.5-47.5 0-65.5-18.25t-18-52.75v-21h-127.5v16q0 80.5 53.5 125.75t164.5 45.25 161.25-47 50.25-135v-212.5q0-36 9-47.5t34.5-11.5l-5.5-99h-28.5q-55.5 0-86.5 15.25t-46 48.25q-23.5-30.5-67.25-50.75z" />
<glyph unicode="&#xe3;" glyph-name="atilde" horiz-adv-x="587" d="M245.5 781.5q-100 0-100 130h59q0-43 31.5-43 11.5 0 31 17.5 38 33.5 89 33.5 100 0 100-130h-59q0 43.5-28 43.5-12.5 0-33.5-18-40-34-90-33.5zM191.5 288q0-64.5 70-64.5 27.5 0 58 14.5t48 41v134q-24-19.5-84.5-41.75t-76-41-15.5-42.25zM311.25 149.75q-43.75-20.25-106.25-20.25t-105.75 40.5-43.25 103.5 39.25 101 150.25 73q67.5 21.5 94.75 38.5t27.25 47q0 62-84.5 61.5-47.5 0-65.5-18.25t-18-52.75v-21h-127.5v16q0 80.5 53.5 125.75t164.5 45.25 161.25-47 50.25-135v-212.5q0-36 9-47.5t34.5-11.5l-5.5-99h-28.5q-55.5 0-86.5 15.25t-46 48.25q-23.5-30.5-67.25-50.75z" />
<glyph unicode="&#xe4;" glyph-name="adieresis" horiz-adv-x="587" d="M361.5 781.5v116.5h132.5v-116.5h-132.5zM107 781.5v116.5h132v-116.5h-132zM191.5 288q0-64.5 70-64.5 27.5 0 58 14.5t48 41v134q-24-19.5-84.5-41.75t-76-41-15.5-42.25zM311.25 149.75q-43.75-20.25-106.25-20.25t-105.75 40.5-43.25 103.5 39.25 101 150.25 73q67.5 21.5 94.75 38.5t27.25 47q0 62-84.5 61.5-47.5 0-65.5-18.25t-18-52.75v-21h-127.5v16q0 80.5 53.5 125.75t164.5 45.25 161.25-47 50.25-135v-212.5q0-36 9-47.5t34.5-11.5l-5.5-99h-28.5q-55.5 0-86.5 15.25t-46 48.25q-23.5-30.5-67.25-50.75z" />
<glyph unicode="&#xe5;" glyph-name="aring" horiz-adv-x="587" d="M300.5 781.5q-54 0-84.5 28t-30.5 78.5 30.5 78.25 84.5 27.75 84.5-27.75 30.5-78.25-30.5-78.5-84.5-28zM300.5 826.5q59 0 59 61.75t-59 61.75-59-61.75 59-61.75zM191.5 288q0-64.5 70-64.5 27.5 0 58 14.5t48 41v134q-24-19.5-84.5-41.75t-76-41-15.5-42.25zM311.25 149.75q-43.75-20.25-106.25-20.25t-105.75 40.5-43.25 103.5 39.25 101 150.25 73q67.5 21.5 94.75 38.5t27.25 47q0 62-84.5 61.5-47.5 0-65.5-18.25t-18-52.75v-21h-127.5v16q0 80.5 53.5 125.75t164.5 45.25 161.25-47 50.25-135v-212.5q0-36 9-47.5t34.5-11.5l-5.5-99h-28.5q-55.5 0-86.5 15.25t-46 48.25q-23.5-30.5-67.25-50.75z" />
<glyph unicode="&#xe6;" glyph-name="ae" horiz-adv-x="867" d="M506 468.5h179.5v55q0 41.5-22 56.25t-66.5 14.75-67.75-16.5-23.25-57v-52.5zM186.5 287.5q0-32 18.75-50t50.5-18 64.25 12.5 49.5 38.5v130.5q-19.5-16.5-101.25-35t-81.75-78.5zM506 301.5q0-77.5 79.5-77.5 35 0 49.5 3 15 2.5 27 12 22.5 17.5 23 78.5h126q-2-90-35-131.5-33-42-105-52-32-4.5-78-4.5-128.5 0-169.5 76.5-45-39.5-93.25-58t-118.75-18.5-113 40.25-42.5 111.75 43 102.5q43 32 161 59 64 15 80 23 29.5 15 29.5 60 0 69-86 69-47.5 0-65.5-20.5t-18-56v-18h-128v13q0 81 53.75 128.5t160.75 47.5q53 0 94.25-16.5t58.25-48.5q53 65 162 65 211 0 211-176v-115.5h-306v-96.5z" />
<glyph unicode="&#xe7;" glyph-name="ccedilla" horiz-adv-x="554" d="M293.5-109.5q-25 0-47.5 4.5v58.5q17-3.5 39-3.5t37 11.75 15 32.75-19 38.5-53.5 18.5v86h38l3-50.5q52.5-9.5 81.5-39.25t29-66.75-32-63.75-90.5-26.75zM292 129.5q-156 0-201.5 70-28.5 43-28.5 105v215q0 80.5 58.5 125.25t166.5 44.75 162.75-42.75 54.75-156.25l-128-10q0 72.5-17.5 93.5-10.5 13-26 17-15 3.5-52 3.5-83 0-83-75.5v-217q0-42 21.75-59.5t64.5-17.5 60.25 7.75 25 29.5 7.5 68.75h127q-1-59-11-96-10-36-35-61-45-44-166-44.5z" />
<glyph unicode="&#xe8;" glyph-name="egrave" horiz-adv-x="575" d="M253 781.5l-118.5 182.5h133.5l60.5-182.5h-75.5zM198 466.5h193v63q0 48.5-39 59.5-20.5 6-62.25 5.75t-66.75-14.25-25-53.5v-60.5zM201 138.5q-40 8.5-72 28.5-67 41-67 142v209.5q0 81 61.5 126t167.5 45q228.5 0 228.5-176v-130h-321.5v-87.5q0-44.5 22-58.25t74.5-13.75 62 5q22.5 12.5 29 30.25t7.5 46.75h126q-3-124-87.5-157-49.5-19-120-19.25t-110.5 8.75z" />
<glyph unicode="&#xe9;" glyph-name="eacute" horiz-adv-x="575" d="M253.5 781.5l57 182.5h134l-116.5-182.5h-74.5zM198 466.5h193v63q0 48.5-39 59.5-20.5 6-62.25 5.75t-66.75-14.25-25-53.5v-60.5zM201 138.5q-40 8.5-72 28.5-67 41-67 142v209.5q0 81 61.5 126t167.5 45q228.5 0 228.5-176v-130h-321.5v-87.5q0-44.5 22-58.25t74.5-13.75 62 5q22.5 12.5 29 30.25t7.5 46.75h126q-3-124-87.5-157-49.5-19-120-19.25t-110.5 8.75z" />
<glyph unicode="&#xea;" glyph-name="ecircumflex" horiz-adv-x="575" d="M136 781.5l117 150h81.5l111-150h-87.5l-64 87.5-68-87.5h-90zM198 466.5h193v63q0 48.5-39 59.5-20.5 6-62.25 5.75t-66.75-14.25-25-53.5v-60.5zM201 138.5q-40 8.5-72 28.5-67 41-67 142v209.5q0 81 61.5 126t167.5 45q228.5 0 228.5-176v-130h-321.5v-87.5q0-44.5 22-58.25t74.5-13.75 62 5q22.5 12.5 29 30.25t7.5 46.75h126q-3-124-87.5-157-49.5-19-120-19.25t-110.5 8.75z" />
<glyph unicode="&#xeb;" glyph-name="edieresis" horiz-adv-x="575" d="M352 781.5v116.5h132.5v-116.5h-132.5zM97.5 781.5v116.5h132v-116.5h-132zM198 466.5h193v63q0 48.5-39 59.5-20.5 6-62.25 5.75t-66.75-14.25-25-53.5v-60.5zM201 138.5q-40 8.5-72 28.5-67 41-67 142v209.5q0 81 61.5 126t167.5 45q228.5 0 228.5-176v-130h-321.5v-87.5q0-44.5 22-58.25t74.5-13.75 62 5q22.5 12.5 29 30.25t7.5 46.75h126q-3-124-87.5-157-49.5-19-120-19.25t-110.5 8.75z" />
<glyph unicode="&#xec;" glyph-name="igrave" horiz-adv-x="299" d="M113 781.5l-118.5 182.5h133.5l60.5-182.5h-75.5zM83 141v537h136v-537h-136z" />
<glyph unicode="&#xed;" glyph-name="iacute" horiz-adv-x="299" d="M114 781.5l57 182.5h134l-116.5-182.5h-74.5zM83 141v537h136v-537h-136z" />
<glyph unicode="&#xee;" glyph-name="icircumflex" horiz-adv-x="299" d="M-4 781.5l117 150h81.5l111-150h-87.5l-64 87.5-68-87.5h-90zM83 141v537h136v-537h-136z" />
<glyph unicode="&#xef;" glyph-name="idieresis" horiz-adv-x="299" d="M212 781.5v116.5h132.5v-116.5h-132.5zM-42.5 781.5v116.5h132v-116.5h-132zM83 141v537h136v-537h-136z" />
<glyph unicode="&#xf0;" glyph-name="eth" horiz-adv-x="656" d="M248.75 247.75q26.75-17.75 74-17.75t68.75 5q41.5 10 52.5 38.5t11 100.5-11.5 135q-15.5 11-48.75 19.75t-56.25 8.75q-116.5 0-116.5-90.5v-139.5q0-42 26.75-59.75zM146.5 177.5q-63.5 48-63.5 134.5v138q0 83.5 63.25 131t164.25 47.5q25.5 0 68.5-9.25t53-17.75q-8 76-45 121.75t-86 59.75l-44.5-87-59.5 28.5 38.5 75.5q-42 7.5-119 8.5l12 83.5q23 1.5 61.5 1.5t86.5-10l42.5 85 60-28.5-37-75q187-54.5 234-297 14-72 14-159v-38q0-105-56.25-173.25t-190-68.25-197.25 48z" />
<glyph unicode="&#xf1;" glyph-name="ntilde" horiz-adv-x="627" d="M260.5 782.5q-100 0-100 130h59q0-43 31.5-43 11.5 0 31 17.5 38 33.5 89 33.5 100 0 100-130h-59q0 43.5-28 43.5-12.5 0-33.5-18-40-34-90-33.5zM415 518.5q0 69.5-94.5 69.5-40.5 0-72.5-21.25t-32-58.25v-367.5h-136v537h136v-47.5q68.5 60 160 60t133.25-47 41.75-117.5v-385h-136v377.5z" />
<glyph unicode="&#xf2;" glyph-name="ograve" horiz-adv-x="590" d="M257 781.5l-118.5 182.5h133.5l60.5-182.5h-75.5zM295 129.5q-233 0-233 174v211.5q0 82.5 61.25 128.5t171.5 46 171.75-46.25 61.5-128.25v-211.5q0-129.5-123-162-46-12-110-12zM295 224q97 0 97 73.5v223.5q0 39.5-24.5 56.5t-72.5 17q-97 0-97-73.5v-223.5q0-39.5 24.25-56.5t72.75-17z" />
<glyph unicode="&#xf3;" glyph-name="oacute" horiz-adv-x="590" d="M258 781.5l57 182.5h134l-116.5-182.5h-74.5zM295 129.5q-233 0-233 174v211.5q0 82.5 61.25 128.5t171.5 46 171.75-46.25 61.5-128.25v-211.5q0-129.5-123-162-46-12-110-12zM295 224q97 0 97 73.5v223.5q0 39.5-24.5 56.5t-72.5 17q-97 0-97-73.5v-223.5q0-39.5 24.25-56.5t72.75-17z" />
<glyph unicode="&#xf4;" glyph-name="ocircumflex" horiz-adv-x="590" d="M140 781.5l117 150h81.5l111-150h-87.5l-64 87.5-68-87.5h-90zM295 129.5q-233 0-233 174v211.5q0 82.5 61.25 128.5t171.5 46 171.75-46.25 61.5-128.25v-211.5q0-129.5-123-162-46-12-110-12zM295 224q97 0 97 73.5v223.5q0 39.5-24.5 56.5t-72.5 17q-97 0-97-73.5v-223.5q0-39.5 24.25-56.5t72.75-17z" />
<glyph unicode="&#xf5;" glyph-name="otilde" horiz-adv-x="590" d="M239.5 781.5q-100 0-100 130h59q0-43 31.5-43 11.5 0 31 17.5 38 33.5 89 33.5 100 0 100-130h-59q0 43.5-28 43.5-12.5 0-33.5-18-40-34-90-33.5zM295 129.5q-233 0-233 174v211.5q0 82.5 61.25 128.5t171.5 46 171.75-46.25 61.5-128.25v-211.5q0-129.5-123-162-46-12-110-12zM295 224q97 0 97 73.5v223.5q0 39.5-24.5 56.5t-72.5 17q-97 0-97-73.5v-223.5q0-39.5 24.25-56.5t72.75-17z" />
<glyph unicode="&#xf6;" glyph-name="odieresis" horiz-adv-x="590" d="M356 781.5v116.5h132.5v-116.5h-132.5zM101.5 781.5v116.5h132v-116.5h-132zM295 129.5q-233 0-233 174v211.5q0 82.5 61.25 128.5t171.5 46 171.75-46.25 61.5-128.25v-211.5q0-129.5-123-162-46-12-110-12zM295 224q97 0 97 73.5v223.5q0 39.5-24.5 56.5t-72.5 17q-97 0-97-73.5v-223.5q0-39.5 24.25-56.5t72.75-17z" />
<glyph unicode="&#xf7;" glyph-name="divide" horiz-adv-x="502" d="M194.5 537v114.5h114v-114.5h-114zM56 380.5v81.5h390v-81.5h-390zM194.5 188v114.5h114v-114.5h-114z" />
<glyph unicode="&#xf8;" glyph-name="oslash" horiz-adv-x="614" d="M352.5 587q-21.5 7.5-53.5 7.5-97 0-97-73.5v-223.5q0-40.5 25.5-57.5zM532 303.5q0-174-220-174-51 0-82.5 4.5l-36-100-36 10 35 97.5q-126.5 33-126.5 162v211.5q0 82.5 61.25 128.5t171.75 46q48 0 87-9l36 101 36-10.5-36.5-101.5q53.5-20.5 82-60t28.5-94.5v-211.5zM299 224q96.5 0 96.5 73.5v223.5q0 26.5-11.5 43.5l-121.5-337.5q16.5-3 36.5-3z" />
<glyph unicode="&#xf9;" glyph-name="ugrave" horiz-adv-x="624" d="M273 781.5l-118.5 182.5h133.5l60.5-182.5h-75.5zM413.5 200q-16-33-62-51.75t-102-18.75q-80.5 0-127 44.5t-46.5 112.5v391.5h136v-369.5q0-38.5 27.25-57.5t66.75-19 71.5 21.25 32 62.75v362h136v-537h-128z" />
<glyph unicode="&#xfa;" glyph-name="uacute" horiz-adv-x="624" d="M273.5 781.5l57 182.5h134l-116.5-182.5h-74.5zM413.5 200q-16-33-62-51.75t-102-18.75q-80.5 0-127 44.5t-46.5 112.5v391.5h136v-369.5q0-38.5 27.25-57.5t66.75-19 71.5 21.25 32 62.75v362h136v-537h-128z" />
<glyph unicode="&#xfb;" glyph-name="ucircumflex" horiz-adv-x="624" d="M156 781.5l117 150h81.5l111-150h-87.5l-64 87.5-68-87.5h-90zM413.5 200q-16-33-62-51.75t-102-18.75q-80.5 0-127 44.5t-46.5 112.5v391.5h136v-369.5q0-38.5 27.25-57.5t66.75-19 71.5 21.25 32 62.75v362h136v-537h-128z" />
<glyph unicode="&#xfc;" glyph-name="udieresis" horiz-adv-x="624" d="M372 781.5v116.5h132.5v-116.5h-132.5zM117.5 781.5v116.5h132v-116.5h-132zM413.5 200q-16-33-62-51.75t-102-18.75q-80.5 0-127 44.5t-46.5 112.5v391.5h136v-369.5q0-38.5 27.25-57.5t66.75-19 71.5 21.25 32 62.75v362h136v-537h-128z" />
<glyph unicode="&#xfd;" glyph-name="yacute" horiz-adv-x="542" d="M238 781.5l57 182.5h134l-116.5-182.5h-74.5zM74-101.5l-10 112.5q71.5 14 104.25 54.75t50.25 93.25l-202 519h131l139.5-360.5 111.5 360.5h135l-163-467q-42-120.5-76.5-173.25t-64-76.75q-63-51-156-62.5z" />
<glyph unicode="&#xfe;" glyph-name="thorn" horiz-adv-x="606" d="M307 223.5q96.5 0 96.5 77.5v217.5q0 75.5-92 75.5-30.5 0-56.5-9.75t-39.5-22.75v-314q45-24 91.5-24zM79-64v963h136.5v-240q53 29.5 118.5 29.5 96.5 0 151.25-46.75t54.75-125.25v-212.5q0-74-57.25-124.5t-164.75-50.5q-55.5 0-102.5 20.5v-213.5h-136.5z" />
<glyph unicode="&#xff;" glyph-name="ydieresis" horiz-adv-x="542" d="M336 781.5v116.5h132.5v-116.5h-132.5zM81.5 781.5v116.5h132v-116.5h-132zM74-101.5l-10 112.5q71.5 14 104.25 54.75t50.25 93.25l-202 519h131l139.5-360.5 111.5 360.5h135l-163-467q-42-120.5-76.5-173.25t-64-76.75q-63-51-156-62.5z" />
<glyph unicode="&#x100;" glyph-name="Amacron" horiz-adv-x="756" d="M274.5 983.5v78.5h207v-78.5h-207zM262.5 380.5h231l-113.5 388zM35 141l243 738h197l246-738h-157.5l-41.5 140.5h-289l-43-140.5h-155z" />
<glyph unicode="&#x101;" glyph-name="amacron" horiz-adv-x="587" d="M197 781.5v78.5h207v-78.5h-207zM191.5 288q0-64.5 70-64.5 27.5 0 58 14.5t48 41v134q-24-19.5-84.5-41.75t-76-41-15.5-42.25zM311.25 149.75q-43.75-20.25-106.25-20.25t-105.75 40.5-43.25 103.5 39.25 101 150.25 73q67.5 21.5 94.75 38.5t27.25 47q0 62-84.5 61.5-47.5 0-65.5-18.25t-18-52.75v-21h-127.5v16q0 80.5 53.5 125.75t164.5 45.25 161.25-47 50.25-135v-212.5q0-36 9-47.5t34.5-11.5l-5.5-99h-28.5q-55.5 0-86.5 15.25t-46 48.25q-23.5-30.5-67.25-50.75z" />
<glyph unicode="&#x102;" glyph-name="Abreve" horiz-adv-x="756" d="M378 983.5q-53 0-85.5 32.75t-32.5 79.75h62q0-26 16.25-41t39.75-15 39.75 15 16.25 41h62q0-47-32.5-79.75t-85.5-32.75zM262.5 380.5h231l-113.5 388zM35 141l243 738h197l246-738h-157.5l-41.5 140.5h-289l-43-140.5h-155z" />
<glyph unicode="&#x103;" glyph-name="abreve" horiz-adv-x="587" d="M300.5 781.5q-53 0-85.5 32.75t-32.5 79.75h62q0-26 16.25-41t39.75-15 39.75 15 16.25 41h62q0-47-32.5-79.75t-85.5-32.75zM191.5 288q0-64.5 70-64.5 27.5 0 58 14.5t48 41v134q-24-19.5-84.5-41.75t-76-41-15.5-42.25zM311.25 149.75q-43.75-20.25-106.25-20.25t-105.75 40.5-43.25 103.5 39.25 101 150.25 73q67.5 21.5 94.75 38.5t27.25 47q0 62-84.5 61.5-47.5 0-65.5-18.25t-18-52.75v-21h-127.5v16q0 80.5 53.5 125.75t164.5 45.25 161.25-47 50.25-135v-212.5q0-36 9-47.5t34.5-11.5l-5.5-99h-28.5q-55.5 0-86.5 15.25t-46 48.25q-23.5-30.5-67.25-50.75z" />
<glyph unicode="&#x104;" glyph-name="Aogonek" horiz-adv-x="756" d="M629 149.5q-41.5-79-41.5-127 0-61 88-61l-6.5-70.5h-6q-168 0-168 107 0 37 21 78t55.5 73.5h57.5zM262.5 380.5h231l-113.5 388zM35 141l243 738h197l246-738h-157.5l-41.5 140.5h-289l-43-140.5h-155z" />
<glyph unicode="&#x105;" glyph-name="aogonek" horiz-adv-x="587" d="M528 148q-41.5-79-41.5-127 0-61 88-61l-6.5-70.5h-6q-168 0-168 107 0 37 21 78t55.5 73.5h57.5zM191.5 288q0-64.5 70-64.5 27.5 0 58 14.5t48 41v134q-24-19.5-84.5-41.75t-76-41-15.5-42.25zM311.25 149.75q-43.75-20.25-106.25-20.25t-105.75 40.5-43.25 103.5 39.25 101 150.25 73q67.5 21.5 94.75 38.5t27.25 47q0 62-84.5 61.5-47.5 0-65.5-18.25t-18-52.75v-21h-127.5v16q0 80.5 53.5 125.75t164.5 45.25 161.25-47 50.25-135v-212.5q0-36 9-47.5t34.5-11.5l-5.5-99h-28.5q-55.5 0-86.5 15.25t-46 48.25q-23.5-30.5-67.25-50.75z" />
<glyph unicode="&#x106;" glyph-name="Cacute" horiz-adv-x="745" d="M343 983.5l57 182.5h134l-116.5-182.5h-74.5zM257 141q-56 13-89.75 34.5t-53.75 55.25-26.75 69.25-6.75 83v246.5q0 132 53.5 185 53.5 53.5 142 68.5 50 9 113 8.5 228.5 0 272.5-125 20-56 20-134v-9l-145.5-17v37.5q0 77-30.25 104t-115.75 27-123.25-27.25-37.75-100.75v-279q0-74 38.75-98.75t123.25-24.75q44.5 0 70.5 4.75t43.75 19.25 24.25 38.5 6.5 64v23.5h145.5v-13.5q0-109.5-32.25-158.25t-92.75-71.75-151.75-23-147.25 13z" />
<glyph unicode="&#x107;" glyph-name="cacute" horiz-adv-x="554" d="M246 781.5l57 182.5h134l-116.5-182.5h-74.5zM292 129.5q-156 0-201.5 70-28.5 43-28.5 105v215q0 80.5 58.5 125.25t166.5 44.75 162.75-42.75 54.75-156.25l-128-10q0 72.5-17.5 93.5-10.5 13-26 17-15 3.5-52 3.5-83 0-83-75.5v-217q0-42 21.75-59.5t64.5-17.5 60.25 7.75 25 29.5 7.5 68.75h127q-1-59-11-96-10-36-35-61-45-44-166-44.5z" />
<glyph unicode="&#x108;" glyph-name="Ccircumflex" horiz-adv-x="745" d="M226 983.5l117 150h81.5l111-150h-87.5l-64 87.5-68-87.5h-90zM257 141q-56 13-89.75 34.5t-53.75 55.25-26.75 69.25-6.75 83v246.5q0 132 53.5 185 53.5 53.5 142 68.5 50 9 113 8.5 228.5 0 272.5-125 20-56 20-134v-9l-145.5-17v37.5q0 77-30.25 104t-115.75 27-123.25-27.25-37.75-100.75v-279q0-74 38.75-98.75t123.25-24.75q44.5 0 70.5 4.75t43.75 19.25 24.25 38.5 6.5 64v23.5h145.5v-13.5q0-109.5-32.25-158.25t-92.75-71.75-151.75-23-147.25 13z" />
<glyph unicode="&#x109;" glyph-name="ccircumflex" horiz-adv-x="554" d="M128.5 781.5l117 150h81.5l111-150h-87.5l-64 87.5-68-87.5h-90zM292 129.5q-156 0-201.5 70-28.5 43-28.5 105v215q0 80.5 58.5 125.25t166.5 44.75 162.75-42.75 54.75-156.25l-128-10q0 72.5-17.5 93.5-10.5 13-26 17-15 3.5-52 3.5-83 0-83-75.5v-217q0-42 21.75-59.5t64.5-17.5 60.25 7.75 25 29.5 7.5 68.75h127q-1-59-11-96-10-36-35-61-45-44-166-44.5z" />
<glyph unicode="&#x10a;" glyph-name="Cdotaccent" horiz-adv-x="745" d="M318.5 983.5v123.5h124v-123.5h-124zM257 141q-56 13-89.75 34.5t-53.75 55.25-26.75 69.25-6.75 83v246.5q0 132 53.5 185 53.5 53.5 142 68.5 50 9 113 8.5 228.5 0 272.5-125 20-56 20-134v-9l-145.5-17v37.5q0 77-30.25 104t-115.75 27-123.25-27.25-37.75-100.75v-279q0-74 38.75-98.75t123.25-24.75q44.5 0 70.5 4.75t43.75 19.25 24.25 38.5 6.5 64v23.5h145.5v-13.5q0-109.5-32.25-158.25t-92.75-71.75-151.75-23-147.25 13z" />
<glyph unicode="&#x10b;" glyph-name="cdotaccent" horiz-adv-x="554" d="M221.5 781.5v123.5h124v-123.5h-124zM292 129.5q-156 0-201.5 70-28.5 43-28.5 105v215q0 80.5 58.5 125.25t166.5 44.75 162.75-42.75 54.75-156.25l-128-10q0 72.5-17.5 93.5-10.5 13-26 17-15 3.5-52 3.5-83 0-83-75.5v-217q0-42 21.75-59.5t64.5-17.5 60.25 7.75 25 29.5 7.5 68.75h127q-1-59-11-96-10-36-35-61-45-44-166-44.5z" />
<glyph unicode="&#x10c;" glyph-name="Ccaron" horiz-adv-x="745" d="M337 983.5l-111 150h87.5l64-87.5 68 87.5h90l-117-150h-81.5zM257 141q-56 13-89.75 34.5t-53.75 55.25-26.75 69.25-6.75 83v246.5q0 132 53.5 185 53.5 53.5 142 68.5 50 9 113 8.5 228.5 0 272.5-125 20-56 20-134v-9l-145.5-17v37.5q0 77-30.25 104t-115.75 27-123.25-27.25-37.75-100.75v-279q0-74 38.75-98.75t123.25-24.75q44.5 0 70.5 4.75t43.75 19.25 24.25 38.5 6.5 64v23.5h145.5v-13.5q0-109.5-32.25-158.25t-92.75-71.75-151.75-23-147.25 13z" />
<glyph unicode="&#x10d;" glyph-name="ccaron" horiz-adv-x="554" d="M239.5 781.5l-111 150h87.5l64-87.5 68 87.5h90l-117-150h-81.5zM292 129.5q-156 0-201.5 70-28.5 43-28.5 105v215q0 80.5 58.5 125.25t166.5 44.75 162.75-42.75 54.75-156.25l-128-10q0 72.5-17.5 93.5-10.5 13-26 17-15 3.5-52 3.5-83 0-83-75.5v-217q0-42 21.75-59.5t64.5-17.5 60.25 7.75 25 29.5 7.5 68.75h127q-1-59-11-96-10-36-35-61-45-44-166-44.5z" />
<glyph unicode="&#x10e;" glyph-name="Dcaron" horiz-adv-x="767" d="M347 983.5l-111 150h87.5l64-87.5 68 87.5h90l-117-150h-81.5zM95 141v738h320q177 0 238-105 34-59 34-152.5v-226.5q0-187-142-235.5-54-18.5-129.5-18.5h-320.5zM243.5 256.5h159q76 0 106 28t30 91.5v265q0 62.5-30.75 92.5t-105.25 30h-159v-507z" />
<glyph unicode="&#x10f;" glyph-name="dcaron" horiz-adv-x="599" d="M722 566.5l-53.5 23q25.5 29 49.25 77.25t23.75 94.25h-82.5v138h161v-111.5q0-66.5-33-129.25t-65-91.75zM221.5 243q23.5-18 75.5-18t88 21.5v329.5q-39 18.5-88 18.5t-74-17.25-25-56.75v-219.5q0-40 23.5-58zM275.5 129.5q-107 0-160.25 45.25t-53.25 128.25v214.5q0 78.5 55.25 125.25t167.75 46.75q48 0 100-19v228.5h136v-758h-92l-14.5 31.5q-61.5-43-139-43z" />
<glyph unicode="&#x110;" glyph-name="Dcroat" horiz-adv-x="784" d="M254.5 256.5h159q76 0 106 28t30 91.5v265q0 62.5-30.75 92.5t-105.25 30h-159v-198.5h153v-75h-153v-233.5zM106 565v314.5h320q178 0 238-105 34-59.5 34-153v-226.5q0-187-142-235.5-54-18.5-129.5-18.5h-320.5v349h-61v75h61z" />
<glyph unicode="&#x111;" glyph-name="dcroat" horiz-adv-x="622" d="M280 129.5q-107 0-160.5 45.25t-53.5 128.25v214.5q0 78.5 55.5 125.25t168 46.75q48 0 100-19v93.5h-161v57h161v78h136.5v-78h87v-57h-87v-623h-92.5l-14.5 31.5q-61.5-43-139-43zM226 243q23.5-18 75.5-18t88 21.5v329.5q-39 18.5-88 18.5t-74-17.25-25-56.75v-219.5q0-40 23.5-58z" />
<glyph unicode="&#x112;" glyph-name="Emacron" horiz-adv-x="647" d="M236 983.5v78.5h207v-78.5h-207zM95 141v738h483.5v-112h-335.5v-196h297.5v-107h-297.5v-211h341v-112h-489z" />
<glyph unicode="&#x113;" glyph-name="emacron" horiz-adv-x="575" d="M187 781.5v78.5h207v-78.5h-207zM198 466.5h193v63q0 48.5-39 59.5-20.5 6-62.25 5.75t-66.75-14.25-25-53.5v-60.5zM201 138.5q-40 8.5-72 28.5-67 41-67 142v209.5q0 81 61.5 126t167.5 45q228.5 0 228.5-176v-130h-321.5v-87.5q0-44.5 22-58.25t74.5-13.75 62 5q22.5 12.5 29 30.25t7.5 46.75h126q-3-124-87.5-157-49.5-19-120-19.25t-110.5 8.75z" />
<glyph unicode="&#x114;" glyph-name="Ebreve" horiz-adv-x="647" d="M339.5 983.5q-53 0-85.5 32.75t-32.5 79.75h62q0-26 16.25-41t39.75-15 39.75 15 16.25 41h62q0-47-32.5-79.75t-85.5-32.75zM95 141v738h483.5v-112h-335.5v-196h297.5v-107h-297.5v-211h341v-112h-489z" />
<glyph unicode="&#x115;" glyph-name="ebreve" horiz-adv-x="575" d="M291 781.5q-53 0-85.5 32.75t-32.5 79.75h62q0-26 16.25-41t39.75-15 39.75 15 16.25 41h62q0-47-32.5-79.75t-85.5-32.75zM198 466.5h193v63q0 48.5-39 59.5-20.5 6-62.25 5.75t-66.75-14.25-25-53.5v-60.5zM201 138.5q-40 8.5-72 28.5-67 41-67 142v209.5q0 81 61.5 126t167.5 45q228.5 0 228.5-176v-130h-321.5v-87.5q0-44.5 22-58.25t74.5-13.75 62 5q22.5 12.5 29 30.25t7.5 46.75h126q-3-124-87.5-157-49.5-19-120-19.25t-110.5 8.75z" />
<glyph unicode="&#x116;" glyph-name="Edotaccent" horiz-adv-x="647" d="M277.5 983.5v123.5h124v-123.5h-124zM95 141v738h483.5v-112h-335.5v-196h297.5v-107h-297.5v-211h341v-112h-489z" />
<glyph unicode="&#x117;" glyph-name="edotaccent" horiz-adv-x="575" d="M228.5 781.5v123.5h124v-123.5h-124zM198 466.5h193v63q0 48.5-39 59.5-20.5 6-62.25 5.75t-66.75-14.25-25-53.5v-60.5zM201 138.5q-40 8.5-72 28.5-67 41-67 142v209.5q0 81 61.5 126t167.5 45q228.5 0 228.5-176v-130h-321.5v-87.5q0-44.5 22-58.25t74.5-13.75 62 5q22.5 12.5 29 30.25t7.5 46.75h126q-3-124-87.5-157-49.5-19-120-19.25t-110.5 8.75z" />
<glyph unicode="&#x118;" glyph-name="Eogonek" horiz-adv-x="647" d="M397 149.5q-41.5-79-41.5-127 0-61 88-61l-6.5-70.5h-6q-168 0-168 107 0 37 21 78t55.5 73.5h57.5zM95 141v738h483.5v-112h-335.5v-196h297.5v-107h-297.5v-211h341v-112h-489z" />
<glyph unicode="&#x119;" glyph-name="eogonek" horiz-adv-x="575" d="M319.5 138.5q-41.5-79-41.5-127 0-61 88-61l-6.5-70.5h-6q-168 0-168 107 0 37 21 78t55.5 73.5h57.5zM198 466.5h193v63q0 48.5-39 59.5-20.5 6-62.25 5.75t-66.75-14.25-25-53.5v-60.5zM201 138.5q-40 8.5-72 28.5-67 41-67 142v209.5q0 81 61.5 126t167.5 45q228.5 0 228.5-176v-130h-321.5v-87.5q0-44.5 22-58.25t74.5-13.75 62 5q22.5 12.5 29 30.25t7.5 46.75h126q-3-124-87.5-157-49.5-19-120-19.25t-110.5 8.75z" />
<glyph unicode="&#x11a;" glyph-name="Ecaron" horiz-adv-x="647" d="M296 983.5l-111 150h87.5l64-87.5 68 87.5h90l-117-150h-81.5zM95 141v738h483.5v-112h-335.5v-196h297.5v-107h-297.5v-211h341v-112h-489z" />
<glyph unicode="&#x11b;" glyph-name="ecaron" horiz-adv-x="575" d="M247 781.5l-111 150h87.5l64-87.5 68 87.5h90l-117-150h-81.5zM198 466.5h193v63q0 48.5-39 59.5-20.5 6-62.25 5.75t-66.75-14.25-25-53.5v-60.5zM201 138.5q-40 8.5-72 28.5-67 41-67 142v209.5q0 81 61.5 126t167.5 45q228.5 0 228.5-176v-130h-321.5v-87.5q0-44.5 22-58.25t74.5-13.75 62 5q22.5 12.5 29 30.25t7.5 46.75h126q-3-124-87.5-157-49.5-19-120-19.25t-110.5 8.75z" />
<glyph unicode="&#x11c;" glyph-name="Gcircumflex" horiz-adv-x="804" d="M240 983.5l117 150h81.5l111-150h-87.5l-64 87.5-68-87.5h-90zM487.75 136.25q-36.25-8.25-97.25-8.25-60.5 0-118.5 13-108.5 24-150.25 86.25t-41.75 155.75v246.5q0 152.5 97 213 78.5 49 229.5 49 242.5-0.5 287.5-136.5 15-46 15-110.5v-11.5l-146-11v29.5q0 72-35 97.75t-122.75 25.75-132-28-44.25-100v-279q0-73.5 45.5-98.5t132-25 127.75 25 41.25 98.5v54h-149v97.5h283v-378.5h-78.5l-23.5 85q-6.5-22-24.75-40.75t-38.5-29.75-56.5-19.25z" />
<glyph unicode="&#x11d;" glyph-name="gcircumflex" horiz-adv-x="606" d="M141 781.5l117 150h81.5l111-150h-87.5l-64 87.5-68-87.5h-90zM294 247.5q66.5 0 99.5 24v285.5q0 12-28.5 25-29 12.5-74 12.5-93 0-93-75v-200.5q0-71.5 96-71.5zM287-79.5q-118.5 0-177.5 28l28 92.5q75.5-21 139.25-21t90.25 25.25 26.5 80.75v59q-47-28-133.25-28t-142.25 44.25-56 122.75v192.5q0 72.5 47.25 122.75t157.25 50.25q42.5 0 83.25-14.25t67.25-35.75l11.5 39h101v-543.5q0-214.5-242.5-214.5z" />
<glyph unicode="&#x11e;" glyph-name="Gbreve" horiz-adv-x="804" d="M395 983.5q-53 0-85.5 32.75t-32.5 79.75h62q0-26 16.25-41t39.75-15 39.75 15 16.25 41h62q0-47-32.5-79.75t-85.5-32.75zM487.75 136.25q-36.25-8.25-97.25-8.25-60.5 0-118.5 13-108.5 24-150.25 86.25t-41.75 155.75v246.5q0 152.5 97 213 78.5 49 229.5 49 242.5-0.5 287.5-136.5 15-46 15-110.5v-11.5l-146-11v29.5q0 72-35 97.75t-122.75 25.75-132-28-44.25-100v-279q0-73.5 45.5-98.5t132-25 127.75 25 41.25 98.5v54h-149v97.5h283v-378.5h-78.5l-23.5 85q-6.5-22-24.75-40.75t-38.5-29.75-56.5-19.25z" />
<glyph unicode="&#x11f;" glyph-name="gbreve" horiz-adv-x="606" d="M296 781.5q-53 0-85.5 32.75t-32.5 79.75h62q0-26 16.25-41t39.75-15 39.75 15 16.25 41h62q0-47-32.5-79.75t-85.5-32.75zM294 247.5q66.5 0 99.5 24v285.5q0 12-28.5 25-29 12.5-74 12.5-93 0-93-75v-200.5q0-71.5 96-71.5zM287-79.5q-118.5 0-177.5 28l28 92.5q75.5-21 139.25-21t90.25 25.25 26.5 80.75v59q-47-28-133.25-28t-142.25 44.25-56 122.75v192.5q0 72.5 47.25 122.75t157.25 50.25q42.5 0 83.25-14.25t67.25-35.75l11.5 39h101v-543.5q0-214.5-242.5-214.5z" />
<glyph unicode="&#x120;" glyph-name="Gdotaccent" horiz-adv-x="804" d="M332.5 983.5v123.5h124v-123.5h-124zM487.75 136.25q-36.25-8.25-97.25-8.25-60.5 0-118.5 13-108.5 24-150.25 86.25t-41.75 155.75v246.5q0 152.5 97 213 78.5 49 229.5 49 242.5-0.5 287.5-136.5 15-46 15-110.5v-11.5l-146-11v29.5q0 72-35 97.75t-122.75 25.75-132-28-44.25-100v-279q0-73.5 45.5-98.5t132-25 127.75 25 41.25 98.5v54h-149v97.5h283v-378.5h-78.5l-23.5 85q-6.5-22-24.75-40.75t-38.5-29.75-56.5-19.25z" />
<glyph unicode="&#x121;" glyph-name="gdotaccent" horiz-adv-x="606" d="M233.5 781.5v123.5h124v-123.5h-124zM294 247.5q66.5 0 99.5 24v285.5q0 12-28.5 25-29 12.5-74 12.5-93 0-93-75v-200.5q0-71.5 96-71.5zM287-79.5q-118.5 0-177.5 28l28 92.5q75.5-21 139.25-21t90.25 25.25 26.5 80.75v59q-47-28-133.25-28t-142.25 44.25-56 122.75v192.5q0 72.5 47.25 122.75t157.25 50.25q42.5 0 83.25-14.25t67.25-35.75l11.5 39h101v-543.5q0-214.5-242.5-214.5z" />
<glyph unicode="&#x122;" glyph-name="Gcommaaccent" horiz-adv-x="804" d="M377.5-296.5l-53.5 23.5q25.5 29 49.25 77t23.75 94h-82.5v138h160.5v-111.5q0-66.5-32.75-129t-64.75-92zM487.75 136.25q-36.25-8.25-97.25-8.25-60.5 0-118.5 13-108.5 24-150.25 86.25t-41.75 155.75v246.5q0 152.5 97 213 78.5 49 229.5 49 242.5-0.5 287.5-136.5 15-46 15-110.5v-11.5l-146-11v29.5q0 72-35 97.75t-122.75 25.75-132-28-44.25-100v-279q0-73.5 45.5-98.5t132-25 127.75 25 41.25 98.5v54h-149v97.5h283v-378.5h-78.5l-23.5 85q-6.5-22-24.75-40.75t-38.5-29.75-56.5-19.25z" />
<glyph unicode="&#x123;" glyph-name="gcommaaccent" horiz-adv-x="626" d="M247.5 756v111.5q0 66.5 33 129.5t65 91.5l53.5-23q-25-29.5-49-77.5t-24-94h82.5v-138h-161zM294 247.5q66.5 0 99.5 24v285.5q0 12-28.5 25-29 12.5-74 12.5-93 0-93-75v-200.5q0-71.5 96-71.5zM287-79.5q-118.5 0-177.5 28l28 92.5q75.5-21 139.25-21t90.25 25.25 26.5 80.75v59q-47-28-133.25-28t-142.25 44.25-56 122.75v192.5q0 72.5 47.25 122.75t157.25 50.25q42.5 0 83.25-14.25t67.25-35.75l11.5 39h101v-543.5q0-214.5-242.5-214.5z" />
<glyph unicode="&#x124;" glyph-name="Hcircumflex" horiz-adv-x="812" d="M251 983.5l117 150h81.5l111-150h-87.5l-64 87.5-68-87.5h-90zM95 141v738h149v-314h324v314h149v-738h-149v307.5h-324v-307.5h-149z" />
<glyph unicode="&#x125;" glyph-name="hcircumflex" horiz-adv-x="627" d="M161 990.5l117 150h81.5l111-150h-87.5l-64 87.5-68-87.5h-90zM81 141v757.5h136v-272.5q17 28 64.5 45.75t113.75 17.75 111-41.25 44.75-109.75v-397.5h-136v378q0 69-91.5 69-41 0-73.75-20.75t-32.75-57.25v-369h-136z" />
<glyph unicode="&#x126;" glyph-name="Hbar" horiz-adv-x="832" d="M256.5 686.5v-121.5h323v121.5h-323zM108 738.5v140.5h148.5v-140.5h323v140.5h148.5v-140.5h52v-52h-52v-545.5h-148.5v307.5h-323v-307.5h-148.5v545.5h-56v52h56z" />
<glyph unicode="&#x127;" glyph-name="hbar" horiz-adv-x="645" d="M89 141v610.5h-66.5v71.5h66.5v75.5h136.5v-75.5h162v-71.5h-162v-130.5q17.5 29 64 48.75t101 19.75q77 0 123.25-41.5t46.25-109.5v-397.5h-136.5v384.5q0 69-91.5 69-41.5 0-74-19t-32.5-55v-379.5h-136.5z" />
<glyph unicode="&#x128;" glyph-name="Itilde" horiz-adv-x="574" d="M231.5 983.5q-100 0-100 130h59q0-43 31.5-43 11.5 0 31 17.5 38 33.5 89 33.5 100 0 100-130h-59q0 43.5-28 43.5-12.5 0-33.5-18-40-34-90-33.5zM79 141v111h134.5v516.5h-134.5v110.5h416v-110.5h-133.5v-516.5h133.5v-111h-416z" />
<glyph unicode="&#x129;" glyph-name="itilde" horiz-adv-x="299" d="M95.5 781.5q-100 0-100 130h59q0-43 31.5-43 11.5 0 31 17.5 38 33.5 89 33.5 100 0 100-130h-59q0 43.5-28 43.5-12.5 0-33.5-18-40-34-90-33.5zM83 141v537h136v-537h-136z" />
<glyph unicode="&#x12a;" glyph-name="Imacron" horiz-adv-x="574" d="M183.5 983.5v78.5h207v-78.5h-207zM79 141v111h134.5v516.5h-134.5v110.5h416v-110.5h-133.5v-516.5h133.5v-111h-416z" />
<glyph unicode="&#x12b;" glyph-name="imacron" horiz-adv-x="299" d="M47.5 781.5v78.5h207v-78.5h-207zM83 141v537h136v-537h-136z" />
<glyph unicode="&#x12c;" glyph-name="Ibreve" horiz-adv-x="574" d="M287 983.5q-53 0-85.5 32.75t-32.5 79.75h62q0-26 16.25-41t39.75-15 39.75 15 16.25 41h62q0-47-32.5-79.75t-85.5-32.75zM79 141v111h134.5v516.5h-134.5v110.5h416v-110.5h-133.5v-516.5h133.5v-111h-416z" />
<glyph unicode="&#x12d;" glyph-name="ibreve" horiz-adv-x="299" d="M151 781.5q-53 0-85.5 32.75t-32.5 79.75h62q0-26 16.25-41t39.75-15 39.75 15 16.25 41h62q0-47-32.5-79.75t-85.5-32.75zM83 141v537h136v-537h-136z" />
<glyph unicode="&#x12e;" glyph-name="Iogonek" horiz-adv-x="574" d="M315.5 149.5q-41.5-79-41.5-127 0-61 88-61l-6.5-70.5h-6q-168 0-168 107 0 37 21 78t55.5 73.5h57.5zM79 141v111h134.5v516.5h-134.5v110.5h416v-110.5h-133.5v-516.5h133.5v-111h-416z" />
<glyph unicode="&#x12f;" glyph-name="iogonek" horiz-adv-x="299" d="M179.5 149.5q-41.5-79-41.5-127 0-61 88-61l-6.5-70.5h-6q-168 0-168 107 0 37 21 78t55.5 73.5h57.5zM83 754.5v120.5h136v-120.5h-136zM83 141v537h136v-537h-136z" />
<glyph unicode="&#x130;" glyph-name="Idotaccent" horiz-adv-x="574" d="M225 983.5v123.5h124v-123.5h-124zM79 141v111h134.5v516.5h-134.5v110.5h416v-110.5h-133.5v-516.5h133.5v-111h-416z" />
<glyph unicode="&#x131;" glyph-name="dotlessi" horiz-adv-x="299" d="M83 141v537h136v-537h-136z" />
<glyph unicode="&#x132;" glyph-name="IJ" horiz-adv-x="1185" d="M1021.5 187.25q-70.5-58.75-192.5-58.75t-220 46l34.5 110q36.5-17 85.25-28t87.75-11q66 0 96.5 32t30.5 84v404.5h-254v113h402.5v-527q0-106-70.5-164.75zM79 141v111h134.5v516.5h-134.5v110.5h416v-110.5h-133.5v-516.5h133.5v-111h-416z" />
<glyph unicode="&#x133;" glyph-name="ij" horiz-adv-x="618" d="M401 754.5v120.5h136v-120.5h-136zM300.5-40l-6.5 97h22q86 0 86 89v532h136v-538.5q0-84-45.5-131.75t-141.5-47.75h-50.5zM83 754.5v120.5h136v-120.5h-136zM83 141v537h136v-537h-136z" />
<glyph unicode="&#x134;" glyph-name="Jcircumflex" horiz-adv-x="611" d="M187 983.5l117 150h81.5l111-150h-87.5l-64 87.5-68-87.5h-90zM447.5 187.25q-70.5-58.75-192.5-58.75t-220 46l34.5 110q36.5-17 85.25-28t87.75-11q66 0 96.5 32t30.5 84v404.5h-254v113h402.5v-527q0-106-70.5-164.75z" />
<glyph unicode="&#x135;" glyph-name="jcircumflex" horiz-adv-x="325" d="M11 781.5l117 150h81.5l111-150h-87.5l-64 87.5-68-87.5h-90zM13.5 73.5q85.5 0 85.5 89v515.5h136.5v-522q0-84-45.5-131.75t-141.5-47.75h-54.5l-3 97h22.5z" />
<glyph unicode="&#x136;" glyph-name="Kcommaaccent" horiz-adv-x="724" d="M387-283.5l-53.5 23.5q25.5 29 49.25 77t23.75 94h-82.5v138h160.5v-111.5q0-66.5-32.75-129t-64.75-92zM95 141v738h148.5v-358l287 358h164l-258.5-336 277-402h-167.5l-232.5 339.5-69.5-69v-270.5h-148.5z" />
<glyph unicode="&#x137;" glyph-name="kcommaaccent" horiz-adv-x="600" d="M320-283.5l-53.5 23.5q25.5 29 49.25 77t23.75 94h-82.5v138h160.5v-111.5q0-66.5-32.75-129t-64.75-92zM81 141v758h136v-457l212.5 236h155l-202-231.5 211-305.5h-148.5l-168 248.5-60-61.5v-187h-136z" />
<glyph unicode="&#x138;" glyph-name="kgreenlandic" horiz-adv-x="607" d="M85.5 141v537h136.5v-236q13.5 14 100.75 118.25t99.75 117.75h162l-199-234.5 209.5-302.5h-163l-162 241.5-48-49v-192.5h-136.5z" />
<glyph unicode="&#x139;" glyph-name="Lacute" horiz-adv-x="586" d="M286 983.5l57 182.5h134l-116.5-182.5h-74.5zM95 141v738h148.5v-622h308.5v-116h-457z" />
<glyph unicode="&#x13a;" glyph-name="lacute" horiz-adv-x="354" d="M169 990.5l57 182.5h134l-116.5-182.5h-74.5zM263.5 135q-92.5 0-137 42t-44.5 140.5v581h136v-579q0-45 21-64.25t75-19.25h17l-10.5-101h-57z" />
<glyph unicode="&#x13b;" glyph-name="Lcommaaccent" horiz-adv-x="586" d="M306-283.5l-53.5 23.5q25.5 29 49.25 77t23.75 94h-82.5v138h160.5v-111.5q0-66.5-32.75-129t-64.75-92zM95 141v738h148.5v-622h308.5v-116h-457z" />
<glyph unicode="&#x13c;" glyph-name="lcommaaccent" horiz-adv-x="354" d="M189-289.5l-53.5 23.5q25.5 29 49.25 77t23.75 94h-82.5v138h160.5v-111.5q0-66.5-32.75-129t-64.75-92zM263.5 135q-92.5 0-137 42t-44.5 140.5v581h136v-579q0-45 21-64.25t75-19.25h17l-10.5-101h-57z" />
<glyph unicode="&#x13d;" glyph-name="Lcaron" horiz-adv-x="586" d="M489.5 559l-53.5 23q25.5 29 49.25 77.25t23.75 94.25h-82.5v138h161v-111.5q0-66.5-33-129.25t-65-91.75zM95 141v738h148.5v-622h308.5v-116h-457z" />
<glyph unicode="&#x13e;" glyph-name="lcaron" horiz-adv-x="523" d="M436.5 566l-53.5 23q25.5 29 49.25 77.25t23.75 94.25h-82.5v138h161v-111.5q0-66.5-33-129.25t-65-91.75zM263.5 135q-92.5 0-137 42t-44.5 140.5v581h136v-579q0-45 21-64.25t75-19.25h17l-10.5-101h-57z" />
<glyph unicode="&#x13f;" glyph-name="Ldot" horiz-adv-x="586" d="M365 455v122.5h124v-122.5h-124zM95 141v738h148.5v-622h308.5v-116h-457z" />
<glyph unicode="&#x140;" glyph-name="ldot" horiz-adv-x="610" d="M420 531v122.5h124v-122.5h-124zM263.5 135q-92.5 0-137 42t-44.5 140.5v581h136v-579q0-45 21-64.25t75-19.25h17l-10.5-101h-57z" />
<glyph unicode="&#x141;" glyph-name="Lslash" horiz-adv-x="605" d="M106 585.5v294h148.5v-241.5l142 50v-71.5l-142-50v-309.5h316.5v-116h-465v373l-94-33v71.5z" />
<glyph unicode="&#x142;" glyph-name="lslash" horiz-adv-x="289" d="M246.5 135q-91.5 0-133.5 41.75t-42 140.75v191.5l-68.5-28v71.5l68.5 28v318h136v-262l82.5 34v-72l-82.5-34v-245q0-46 18.5-64.75t71.5-18.75h17l-10.5-101h-57z" />
<glyph unicode="&#x143;" glyph-name="Nacute" horiz-adv-x="817" d="M371 983.5l57 182.5h134l-116.5-182.5h-74.5zM95 141v738h111.5l383.5-506v506h132v-738h-111.5l-382 498v-498h-133.5z" />
<glyph unicode="&#x144;" glyph-name="nacute" horiz-adv-x="627" d="M278 782.5l57 182.5h134l-116.5-182.5h-74.5zM415 518.5q0 69.5-94.5 69.5-40.5 0-72.5-21.25t-32-58.25v-367.5h-136v537h136v-47.5q68.5 60 160 60t133.25-47 41.75-117.5v-385h-136v377.5z" />
<glyph unicode="&#x145;" glyph-name="Ncommaaccent" horiz-adv-x="817" d="M391-283.5l-53.5 23.5q25.5 29 49.25 77t23.75 94h-82.5v138h160.5v-111.5q0-66.5-32.75-129t-64.75-92zM95 141v738h111.5l383.5-506v506h132v-738h-111.5l-382 498v-498h-133.5z" />
<glyph unicode="&#x146;" glyph-name="ncommaaccent" horiz-adv-x="627" d="M298-283.5l-53.5 23.5q25.5 29 49.25 77t23.75 94h-82.5v138h160.5v-111.5q0-66.5-32.75-129t-64.75-92zM415 518.5q0 69.5-94.5 69.5-40.5 0-72.5-21.25t-32-58.25v-367.5h-136v537h136v-47.5q68.5 60 160 60t133.25-47 41.75-117.5v-385h-136v377.5z" />
<glyph unicode="&#x147;" glyph-name="Ncaron" horiz-adv-x="817" d="M365 983.5l-111 150h87.5l64-87.5 68 87.5h90l-117-150h-81.5zM95 141v738h111.5l383.5-506v506h132v-738h-111.5l-382 498v-498h-133.5z" />
<glyph unicode="&#x148;" glyph-name="ncaron" horiz-adv-x="627" d="M272 782.5l-111 150h87.5l64-87.5 68 87.5h90l-117-150h-81.5zM415 518.5q0 69.5-94.5 69.5-40.5 0-72.5-21.25t-32-58.25v-367.5h-136v537h136v-47.5q68.5 60 160 60t133.25-47 41.75-117.5v-385h-136v377.5z" />
<glyph unicode="&#x149;" glyph-name="napostrophe" horiz-adv-x="645" d="M172.5 756.5l-53.5 23.5q25 29 49 77t24 94h-82.5v138h160.5v-111.5q0-66.5-33-129t-64.5-92zM415 518.5q0 69.5-94.5 69.5-40.5 0-72.5-21.25t-32-58.25v-367.5h-136v537h136v-47.5q68.5 60 160 60t133.25-47 41.75-117.5v-385h-136v377.5z" />
<glyph unicode="&#x14a;" glyph-name="Eng" horiz-adv-x="820" d="M450.5-50l-14 95q101 8.5 123.25 32t25.5 55.5 3.25 67v18l-359.5 421.5v-498h-134v738.5h112.5l384-458.5v458.5h133.5v-657.5q0-75-11.75-123.5t-42.5-83.25-84.25-50-136-15.25z" />
<glyph unicode="&#x14b;" glyph-name="eng" horiz-adv-x="627" d="M276.5-41.5l-14 95q104.5 10.5 122.5 32.5 23.5 29.5 26.5 65.25t3 75.75v298q0 69.5-93.5 69.5-42 0-73.25-19t-31.25-55.5v-379h-136.5v537h136.5v-63q18 31.5 62.5 53t99 21.5q77.5 0 125.25-41.75t47.75-109.75v-307.5q0-75-11.75-123.5t-42.5-83.25-84.25-50-136-15.25z" />
<glyph unicode="&#x14c;" glyph-name="Omacron" horiz-adv-x="803" d="M298 983.5v78.5h207v-78.5h-207zM405 128q-217 0-286 108-39 60-39 155.5v231q0 155.5 96.5 217.5 79.5 51 230.5 51.5 210.5 0 278-115 38-64.5 38-161.5v-215.5q0-151-95-218-76-53.5-223-53.5zM273.5 273.5q44.5-29 132.75-29t128 28.75 39.75 101.75v267.5q0 72-40.5 102.25t-127.25 30.25-132-30-45.25-102.5v-267.5q0-72.5 44.5-101.5z" />
<glyph unicode="&#x14d;" glyph-name="omacron" horiz-adv-x="590" d="M191.5 781.5v78.5h207v-78.5h-207zM295 129.5q-233 0-233 174v211.5q0 82.5 61.25 128.5t171.5 46 171.75-46.25 61.5-128.25v-211.5q0-129.5-123-162-46-12-110-12zM295 224q97 0 97 73.5v223.5q0 39.5-24.5 56.5t-72.5 17q-97 0-97-73.5v-223.5q0-39.5 24.25-56.5t72.75-17z" />
<glyph unicode="&#x14e;" glyph-name="Obreve" horiz-adv-x="803" d="M401.5 983.5q-53 0-85.5 32.75t-32.5 79.75h62q0-26 16.25-41t39.75-15 39.75 15 16.25 41h62q0-47-32.5-79.75t-85.5-32.75zM405 128q-217 0-286 108-39 60-39 155.5v231q0 155.5 96.5 217.5 79.5 51 230.5 51.5 210.5 0 278-115 38-64.5 38-161.5v-215.5q0-151-95-218-76-53.5-223-53.5zM273.5 273.5q44.5-29 132.75-29t128 28.75 39.75 101.75v267.5q0 72-40.5 102.25t-127.25 30.25-132-30-45.25-102.5v-267.5q0-72.5 44.5-101.5z" />
<glyph unicode="&#x14f;" glyph-name="obreve" horiz-adv-x="590" d="M295 781.5q-53 0-85.5 32.75t-32.5 79.75h62q0-26 16.25-41t39.75-15 39.75 15 16.25 41h62q0-47-32.5-79.75t-85.5-32.75zM295 129.5q-233 0-233 174v211.5q0 82.5 61.25 128.5t171.5 46 171.75-46.25 61.5-128.25v-211.5q0-129.5-123-162-46-12-110-12zM295 224q97 0 97 73.5v223.5q0 39.5-24.5 56.5t-72.5 17q-97 0-97-73.5v-223.5q0-39.5 24.25-56.5t72.75-17z" />
<glyph unicode="&#x150;" glyph-name="Ohungarumlaut" horiz-adv-x="803" d="M462 983.5l69.5 215.5h144.5l-133-215.5h-81zM260 983.5l55.5 215.5h143l-121-215.5h-77.5zM405 128q-217 0-286 108-39 60-39 155.5v231q0 155.5 96.5 217.5 79.5 51 230.5 51.5 210.5 0 278-115 38-64.5 38-161.5v-215.5q0-151-95-218-76-53.5-223-53.5zM273.5 273.5q44.5-29 132.75-29t128 28.75 39.75 101.75v267.5q0 72-40.5 102.25t-127.25 30.25-132-30-45.25-102.5v-267.5q0-72.5 44.5-101.5z" />
<glyph unicode="&#x151;" glyph-name="ohungarumlaut" horiz-adv-x="590" d="M355.5 781.5l69.5 215.5h144.5l-133-215.5h-81zM153.5 781.5l55.5 215.5h143l-121-215.5h-77.5zM295 129.5q-233 0-233 174v211.5q0 82.5 61.25 128.5t171.5 46 171.75-46.25 61.5-128.25v-211.5q0-129.5-123-162-46-12-110-12zM295 224q97 0 97 73.5v223.5q0 39.5-24.5 56.5t-72.5 17q-97 0-97-73.5v-223.5q0-39.5 24.25-56.5t72.75-17z" />
<glyph unicode="&#x152;" glyph-name="OE" horiz-adv-x="817" d="M357 236.5h86v544h-86.5q-141.5 0-141.5-128.5v-289q0-126.5 142-126.5zM358.5 141q-188.5 0-245.5 100.5-33 58.5-33 152.5v226q0 148.5 82.5 209.5 67 49.5 196 49.5h394v-94.5h-174.5v-214.5h133v-96.5h-133v-237.5h175.5v-95h-395z" />
<glyph unicode="&#x153;" glyph-name="oe" horiz-adv-x="890" d="M521 468.5h185.5v55q0 41.5-23.5 56.25t-68.75 14.75-69.25-16.5-24-57v-52.5zM292 224q92.5 0 92.5 74v224q0 39-22.5 55.75t-69 16.75-70.5-17-24-55.5v-224q0-40 23-57t70.5-17zM452.5 186q-58-56.5-170-56.5t-166.25 45-54.25 129.5v211.5q0 82 62.25 128t166.5 46 160.75-60q55.5 60 158.5 60 225 0 225-176v-116.5h-314v-95.5q0-42 23.5-59.75t59-17.75 50.75 3.25 28.25 12.75q24.5 18 25.5 79.5h127q-3-132-84-168-49.5-22-142.5-22t-156 56.5z" />
<glyph unicode="&#x154;" glyph-name="Racute" horiz-adv-x="742" d="M357 983.5l57 182.5h134l-116.5-182.5h-74.5zM243.5 538.5h182.5q52.5 0 72.25 29.75t19.75 90.25q0 115-86 115h-188.5v-235zM95 141v738h318.5q143 0 194.75-58t51.75-157.25-28.75-144.5-79.75-65.25l142.5-313h-154l-129.5 291.5h-167v-291.5h-148.5z" />
<glyph unicode="&#x155;" glyph-name="racute" horiz-adv-x="416" d="M205.5 781.5l57 182.5h134l-116.5-182.5h-74.5zM80 141v537h136v-64q12 23 50 41 65.5 31.5 126.5 31.5 7 0 13-0.5l-3-115.5q-89.5-4.5-148.5-33.5-33-16-38-36v-360h-136z" />
<glyph unicode="&#x156;" glyph-name="Rcommaaccent" horiz-adv-x="742" d="M377-283.5l-53.5 23.5q25.5 29 49.25 77t23.75 94h-82.5v138h160.5v-111.5q0-66.5-32.75-129t-64.75-92zM243.5 538.5h182.5q52.5 0 72.25 29.75t19.75 90.25q0 115-86 115h-188.5v-235zM95 141v738h318.5q143 0 194.75-58t51.75-157.25-28.75-144.5-79.75-65.25l142.5-313h-154l-129.5 291.5h-167v-291.5h-148.5z" />
<glyph unicode="&#x157;" glyph-name="rcommaaccent" horiz-adv-x="416" d="M225.5-283.5l-53.5 23.5q25.5 29 49.25 77t23.75 94h-82.5v138h160.5v-111.5q0-66.5-32.75-129t-64.75-92zM80 141v537h136v-64q12 23 50 41 65.5 31.5 126.5 31.5 7 0 13-0.5l-3-115.5q-89.5-4.5-148.5-33.5-33-16-38-36v-360h-136z" />
<glyph unicode="&#x158;" glyph-name="Rcaron" horiz-adv-x="742" d="M351 983.5l-111 150h87.5l64-87.5 68 87.5h90l-117-150h-81.5zM243.5 538.5h182.5q52.5 0 72.25 29.75t19.75 90.25q0 115-86 115h-188.5v-235zM95 141v738h318.5q143 0 194.75-58t51.75-157.25-28.75-144.5-79.75-65.25l142.5-313h-154l-129.5 291.5h-167v-291.5h-148.5z" />
<glyph unicode="&#x159;" glyph-name="rcaron" horiz-adv-x="416" d="M199 781.5l-111 150h87.5l64-87.5 68 87.5h90l-117-150h-81.5zM80 141v537h136v-64q12 23 50 41 65.5 31.5 126.5 31.5 7 0 13-0.5l-3-115.5q-89.5-4.5-148.5-33.5-33-16-38-36v-360h-136z" />
<glyph unicode="&#x15a;" glyph-name="Sacute" horiz-adv-x="641" d="M285 983.5l57 182.5h134l-116.5-182.5h-74.5zM337 128q-68.5 0-145 18t-132 49l51 108.5q111-59 229.5-59 59.5 0 84 24.5t24.5 73.5q0 9.5-2 28.5-4.5 45-100 73.5l-126 37q-58 17-93 48.75t-47.5 69.5-12.5 88.25q0 101.5 72.25 152.5t184.25 51q148 0 247-57.5l-42-104.5q-96.5 45.5-192 45.5-120 0-123.5-73.5v-7.5q0-37.5 18.75-58.5t76.75-38.5l125.5-37.5q76-23 112.75-72.5t36.75-140.75-58.25-154.75-189.25-63.5z" />
<glyph unicode="&#x15b;" glyph-name="sacute" horiz-adv-x="497" d="M218 781.5l57 182.5h134l-116.5-182.5h-74.5zM263.5 129.5q-127 0-209.5 42l27.5 92.5q94-40 177-40 63.5 0 72 56.5 1 7 1 13 0 40.5-45.5 55l-118 37q-60.5 19-85.75 57t-25.25 92.5v4q1 150.5 206 150.5 101 0 181-45.5l-32-84.5q-25.5 13.5-69.25 24.25t-82.25 10.75-56-13.75-17.5-47 37-44.75l111-35q66.5-21 93.75-59t27.25-106-50-113.75-142.5-45.75z" />
<glyph unicode="&#x15c;" glyph-name="Scircumflex" horiz-adv-x="641" d="M167.5 983.5l117 150h81.5l111-150h-87.5l-64 87.5-68-87.5h-90zM337 128q-68.5 0-145 18t-132 49l51 108.5q111-59 229.5-59 59.5 0 84 24.5t24.5 73.5q0 9.5-2 28.5-4.5 45-100 73.5l-126 37q-58 17-93 48.75t-47.5 69.5-12.5 88.25q0 101.5 72.25 152.5t184.25 51q148 0 247-57.5l-42-104.5q-96.5 45.5-192 45.5-120 0-123.5-73.5v-7.5q0-37.5 18.75-58.5t76.75-38.5l125.5-37.5q76-23 112.75-72.5t36.75-140.75-58.25-154.75-189.25-63.5z" />
<glyph unicode="&#x15d;" glyph-name="scircumflex" horiz-adv-x="497" d="M100 781.5l117 150h81.5l111-150h-87.5l-64 87.5-68-87.5h-90zM263.5 129.5q-127 0-209.5 42l27.5 92.5q94-40 177-40 63.5 0 72 56.5 1 7 1 13 0 40.5-45.5 55l-118 37q-60.5 19-85.75 57t-25.25 92.5v4q1 150.5 206 150.5 101 0 181-45.5l-32-84.5q-25.5 13.5-69.25 24.25t-82.25 10.75-56-13.75-17.5-47 37-44.75l111-35q66.5-21 93.75-59t27.25-106-50-113.75-142.5-45.75z" />
<glyph unicode="&#x15e;" glyph-name="Scedilla" horiz-adv-x="641" d="M332.5-111q-25 0-47.5 4.5v58.5q17-3.5 39-3.5t37 11.75 15 32.75-19 38.5-53.5 18.5v86h38l3-50.5q52.5-9.5 81.5-39.25t29-66.75-32-63.75-90.5-26.75zM337 128q-68.5 0-145 18t-132 49l51 108.5q111-59 229.5-59 59.5 0 84 24.5t24.5 73.5q0 9.5-2 28.5-4.5 45-100 73.5l-126 37q-58 17-93 48.75t-47.5 69.5-12.5 88.25q0 101.5 72.25 152.5t184.25 51q148 0 247-57.5l-42-104.5q-96.5 45.5-192 45.5-120 0-123.5-73.5v-7.5q0-37.5 18.75-58.5t76.75-38.5l125.5-37.5q76-23 112.75-72.5t36.75-140.75-58.25-154.75-189.25-63.5z" />
<glyph unicode="&#x15f;" glyph-name="scedilla" horiz-adv-x="497" d="M265-109.5q-25 0-47.5 4.5v58.5q17-3.5 39-3.5t37 11.75 15 32.75-19 38.5-53.5 18.5v86h38l3-50.5q52.5-9.5 81.5-39.25t29-66.75-32-63.75-90.5-26.75zM263.5 129.5q-127 0-209.5 42l27.5 92.5q94-40 177-40 63.5 0 72 56.5 1 7 1 13 0 40.5-45.5 55l-118 37q-60.5 19-85.75 57t-25.25 92.5v4q1 150.5 206 150.5 101 0 181-45.5l-32-84.5q-25.5 13.5-69.25 24.25t-82.25 10.75-56-13.75-17.5-47 37-44.75l111-35q66.5-21 93.75-59t27.25-106-50-113.75-142.5-45.75z" />
<glyph unicode="&#x160;" glyph-name="Scaron" horiz-adv-x="641" d="M278.5 983.5l-111 150h87.5l64-87.5 68 87.5h90l-117-150h-81.5zM337 128q-68.5 0-145 18t-132 49l51 108.5q111-59 229.5-59 59.5 0 84 24.5t24.5 73.5q0 9.5-2 28.5-4.5 45-100 73.5l-126 37q-58 17-93 48.75t-47.5 69.5-12.5 88.25q0 101.5 72.25 152.5t184.25 51q148 0 247-57.5l-42-104.5q-96.5 45.5-192 45.5-120 0-123.5-73.5v-7.5q0-37.5 18.75-58.5t76.75-38.5l125.5-37.5q76-23 112.75-72.5t36.75-140.75-58.25-154.75-189.25-63.5z" />
<glyph unicode="&#x161;" glyph-name="scaron" horiz-adv-x="497" d="M211 781.5l-111 150h87.5l64-87.5 68 87.5h90l-117-150h-81.5zM263.5 129.5q-127 0-209.5 42l27.5 92.5q94-40 177-40 63.5 0 72 56.5 1 7 1 13 0 40.5-45.5 55l-118 37q-60.5 19-85.75 57t-25.25 92.5v4q1 150.5 206 150.5 101 0 181-45.5l-32-84.5q-25.5 13.5-69.25 24.25t-82.25 10.75-56-13.75-17.5-47 37-44.75l111-35q66.5-21 93.75-59t27.25-106-50-113.75-142.5-45.75z" />
<glyph unicode="&#x162;" glyph-name="Tcommaaccent" horiz-adv-x="597" d="M308.5-98q-25 0-47.5 4.5v58.5q17-3.5 39-3.5t37 11.75 15 32.75-19 38.5-53.5 18.5v86h38l3-50.5q52.5-9.5 81.5-39.25t29-66.75-32-63.75-90.5-26.75zM224.5 141v625h-205.5v113h559v-113h-205.5v-625h-148z" />
<glyph unicode="&#x163;" glyph-name="tcommaaccent" horiz-adv-x="407" d="M211.5-104q-25 0-47.5 4.5v58.5q17-3.5 39-3.5t37 11.75 15 32.75-19 38.5-53.5 18.5v86h38l3-50.5q52.5-9.5 81.5-39.25t29-66.75-32-63.75-90.5-26.75zM332 135q-122.5 0-175.5 37t-53 139.5v280h-71.5v86.5h75.5l12.5 172.5h119.5v-172.5h127.5v-86.5h-127.5v-270.5q0-50 23.75-67.5t91.25-17.5h16l-5-101h-33.5z" />
<glyph unicode="&#x164;" glyph-name="Tcaron" horiz-adv-x="597" d="M255 983.5l-111 150h87.5l64-87.5 68 87.5h90l-117-150h-81.5zM224.5 141v625h-205.5v113h559v-113h-205.5v-625h-148z" />
<glyph unicode="&#x165;" glyph-name="tcaron" horiz-adv-x="407" d="M571.5 518l-53.5 23q25.5 29 49.25 77.25t23.75 94.25h-82.5v138h161v-111.5q0-66.5-33-129.25t-65-91.75zM332 135q-122.5 0-175.5 37t-53 139.5v280h-71.5v86.5h75.5l12.5 172.5h119.5v-172.5h127.5v-86.5h-127.5v-270.5q0-50 23.75-67.5t91.25-17.5h16l-5-101h-33.5z" />
<glyph unicode="&#x166;" glyph-name="Tbar" horiz-adv-x="605" d="M228.5 549.5v216.5h-200.5v113.5h549v-113.5h-200.5v-216.5h103v-64.5h-103v-344h-148v344h-107v64.5h107z" />
<glyph unicode="&#x167;" glyph-name="tbar" horiz-adv-x="435" d="M338 135q-63 0-103.75 8t-68.75 28.5-39.75 54.25-11.75 85.75v109.5h-85v64.5h85v106h-71v86.5h75l13 172.5h119.5v-172.5h127.5v-86.5h-127.5v-106h136.5v-64.5h-136.5v-100q0-49.5 24.5-67.25t92-17.75h16l-10-101h-35z" />
<glyph unicode="&#x168;" glyph-name="Utilde" horiz-adv-x="787" d="M338.5 983.5q-100 0-100 130h59q0-43 31.5-43 11.5 0 31 17.5 38 33.5 89 33.5 100 0 100-130h-59q0 43.5-28 43.5-12.5 0-33.5-18-40-34-90-33.5zM397 128q-208 0-272.5 99-36.5 56-36.5 148v504.5h148.5v-511q0-69.5 39.75-96.75t121.25-27.25 117.25 27 35.75 97v511h148.5v-498.5q0-147-87-205-73-48-215-48z" />
<glyph unicode="&#x169;" glyph-name="utilde" horiz-adv-x="624" d="M255.5 781.5q-100 0-100 130h59q0-43 31.5-43 11.5 0 31 17.5 38 33.5 89 33.5 100 0 100-130h-59q0 43.5-28 43.5-12.5 0-33.5-18-40-34-90-33.5zM413.5 200q-16-33-62-51.75t-102-18.75q-80.5 0-127 44.5t-46.5 112.5v391.5h136v-369.5q0-38.5 27.25-57.5t66.75-19 71.5 21.25 32 62.75v362h136v-537h-128z" />
<glyph unicode="&#x16a;" glyph-name="Umacron" horiz-adv-x="787" d="M290 983.5v78.5h207v-78.5h-207zM397 128q-208 0-272.5 99-36.5 56-36.5 148v504.5h148.5v-511q0-69.5 39.75-96.75t121.25-27.25 117.25 27 35.75 97v511h148.5v-498.5q0-147-87-205-73-48-215-48z" />
<glyph unicode="&#x16b;" glyph-name="umacron" horiz-adv-x="624" d="M207 781.5v78.5h207v-78.5h-207zM413.5 200q-16-33-62-51.75t-102-18.75q-80.5 0-127 44.5t-46.5 112.5v391.5h136v-369.5q0-38.5 27.25-57.5t66.75-19 71.5 21.25 32 62.75v362h136v-537h-128z" />
<glyph unicode="&#x16c;" glyph-name="Ubreve" horiz-adv-x="787" d="M393.5 983.5q-53 0-85.5 32.75t-32.5 79.75h62q0-26 16.25-41t39.75-15 39.75 15 16.25 41h62q0-47-32.5-79.75t-85.5-32.75zM397 128q-208 0-272.5 99-36.5 56-36.5 148v504.5h148.5v-511q0-69.5 39.75-96.75t121.25-27.25 117.25 27 35.75 97v511h148.5v-498.5q0-147-87-205-73-48-215-48z" />
<glyph unicode="&#x16d;" glyph-name="ubreve" horiz-adv-x="624" d="M311 781.5q-53 0-85.5 32.75t-32.5 79.75h62q0-26 16.25-41t39.75-15 39.75 15 16.25 41h62q0-47-32.5-79.75t-85.5-32.75zM413.5 200q-16-33-62-51.75t-102-18.75q-80.5 0-127 44.5t-46.5 112.5v391.5h136v-369.5q0-38.5 27.25-57.5t66.75-19 71.5 21.25 32 62.75v362h136v-537h-128z" />
<glyph unicode="&#x16e;" glyph-name="Uring" horiz-adv-x="787" d="M393.5 983.5q-54 0-84.5 28t-30.5 78.5 30.5 78.25 84.5 27.75 84.5-27.75 30.5-78.25-30.5-78.5-84.5-28zM393.5 1028.5q59 0 59 61.75t-59 61.75-59-61.75 59-61.75zM397 128q-208 0-272.5 99-36.5 56-36.5 148v504.5h148.5v-511q0-69.5 39.75-96.75t121.25-27.25 117.25 27 35.75 97v511h148.5v-498.5q0-147-87-205-73-48-215-48z" />
<glyph unicode="&#x16f;" glyph-name="uring" horiz-adv-x="624" d="M311 781.5q-54 0-84.5 28t-30.5 78.5 30.5 78.25 84.5 27.75 84.5-27.75 30.5-78.25-30.5-78.5-84.5-28zM311 826.5q59 0 59 61.75t-59 61.75-59-61.75 59-61.75zM413.5 200q-16-33-62-51.75t-102-18.75q-80.5 0-127 44.5t-46.5 112.5v391.5h136v-369.5q0-38.5 27.25-57.5t66.75-19 71.5 21.25 32 62.75v362h136v-537h-128z" />
<glyph unicode="&#x170;" glyph-name="Uhungarumlaut" horiz-adv-x="787" d="M454 983.5l69.5 215.5h144.5l-133-215.5h-81zM252 983.5l55.5 215.5h143l-121-215.5h-77.5zM397 128q-208 0-272.5 99-36.5 56-36.5 148v504.5h148.5v-511q0-69.5 39.75-96.75t121.25-27.25 117.25 27 35.75 97v511h148.5v-498.5q0-147-87-205-73-48-215-48z" />
<glyph unicode="&#x171;" glyph-name="uhungarumlaut" horiz-adv-x="624" d="M371 781.5l69.5 215.5h144.5l-133-215.5h-81zM169 781.5l55.5 215.5h143l-121-215.5h-77.5zM413.5 200q-16-33-62-51.75t-102-18.75q-80.5 0-127 44.5t-46.5 112.5v391.5h136v-369.5q0-38.5 27.25-57.5t66.75-19 71.5 21.25 32 62.75v362h136v-537h-128z" />
<glyph unicode="&#x172;" glyph-name="Uogonek" horiz-adv-x="787" d="M422.5 136.5q-41.5-79-41.5-127 0-61 88-61l-6.5-70.5h-6q-168 0-168 107 0 37 21 78t55.5 73.5h57.5zM397 128q-208 0-272.5 99-36.5 56-36.5 148v504.5h148.5v-511q0-69.5 39.75-96.75t121.25-27.25 117.25 27 35.75 97v511h148.5v-498.5q0-147-87-205-73-48-215-48z" />
<glyph unicode="&#x173;" glyph-name="uogonek" horiz-adv-x="624" d="M368.5 138q-41.5-79-41.5-127 0-61 88-61l-6.5-70.5h-6q-168 0-168 107 0 37 21 78t55.5 73.5h57.5zM413.5 200q-16-33-62-51.75t-102-18.75q-80.5 0-127 44.5t-46.5 112.5v391.5h136v-369.5q0-38.5 27.25-57.5t66.75-19 71.5 21.25 32 62.75v362h136v-537h-128z" />
<glyph unicode="&#x174;" glyph-name="Wcircumflex" horiz-adv-x="977" d="M334 983.5l117 150h81.5l111-150h-87.5l-64 87.5-68-87.5h-90zM211.5 141l-191.5 738h144l127.5-510.5 129.5 510.5h125.5l148-505 120 505h142.5l-191-738h-124.5l-155 526.5-142-526.5h-133z" />
<glyph unicode="&#x175;" glyph-name="wcircumflex" horiz-adv-x="824" d="M257 781.5l117 150h81.5l111-150h-87.5l-64 87.5-68-87.5h-90zM171.5 141l-148.5 537h127l96-385 112.5 385h110.5l116-389.5 89.5 389.5h126.5l-143-537h-133l-110 370.5-114.5-370.5h-129z" />
<glyph unicode="&#x176;" glyph-name="Ycircumflex" horiz-adv-x="652" d="M171 983.5l117 150h81.5l111-150h-87.5l-64 87.5-68-87.5h-90zM254.5 141v283.5l-254.5 454.5h156.5l173-308.5 172.5 308.5h150l-249.5-454.5v-283.5h-148z" />
<glyph unicode="&#x177;" glyph-name="ycircumflex" horiz-adv-x="542" d="M120 781.5l117 150h81.5l111-150h-87.5l-64 87.5-68-87.5h-90zM74-101.5l-10 112.5q71.5 14 104.25 54.75t50.25 93.25l-202 519h131l139.5-360.5 111.5 360.5h135l-163-467q-42-120.5-76.5-173.25t-64-76.75q-63-51-156-62.5z" />
<glyph unicode="&#x178;" glyph-name="Ydieresis" horiz-adv-x="652" d="M387 983.5v116.5h132.5v-116.5h-132.5zM132.5 983.5v116.5h132v-116.5h-132zM254.5 141v283.5l-254.5 454.5h156.5l173-308.5 172.5 308.5h150l-249.5-454.5v-283.5h-148z" />
<glyph unicode="&#x179;" glyph-name="Zacute" horiz-adv-x="592" d="M270 983.5l57 182.5h134l-116.5-182.5h-74.5zM63 141v88.5l310 540.5h-296v109h468v-89.5l-309-543.5h315v-105h-488z" />
<glyph unicode="&#x17a;" glyph-name="zacute" horiz-adv-x="453" d="M193 781.5l57 182.5h134l-116.5-182.5h-74.5zM52 141v83.5l211 360.5h-206v93h352v-82l-209.5-360h207v-95h-354.5z" />
<glyph unicode="&#x17b;" glyph-name="Zdotaccent" horiz-adv-x="592" d="M245 983.5v123.5h124v-123.5h-124zM63 141v88.5l310 540.5h-296v109h468v-89.5l-309-543.5h315v-105h-488z" />
<glyph unicode="&#x17c;" glyph-name="zdotaccent" horiz-adv-x="453" d="M168.5 781.5v123.5h124v-123.5h-124zM52 141v83.5l211 360.5h-206v93h352v-82l-209.5-360h207v-95h-354.5z" />
<glyph unicode="&#x17d;" glyph-name="Zcaron" horiz-adv-x="592" d="M263 983.5l-111 150h87.5l64-87.5 68 87.5h90l-117-150h-81.5zM63 141v88.5l310 540.5h-296v109h468v-89.5l-309-543.5h315v-105h-488z" />
<glyph unicode="&#x17e;" glyph-name="zcaron" horiz-adv-x="453" d="M187 781.5l-111 150h87.5l64-87.5 68 87.5h90l-117-150h-81.5zM52 141v83.5l211 360.5h-206v93h352v-82l-209.5-360h207v-95h-354.5z" />
<glyph unicode="&#x192;" glyph-name="florin" d="M391.5 783.5l-29 3q-46.5 0-53.5-43-2-11-1.5-27v-69.5h71v-84.5h-71v-371q0-93-30.75-123t-93.75-30q-28 0-62.5 4.5v73.5q21-3.5 32.5-3.5 31 0 41.5 16.75t10.5 48.25v384.5h-58.5v84.5h58.5v56.5q0 83 20 113.25t48.75 37.25 55.5 7 62.25-4v-73.5z" />
<glyph unicode="&#x1c4;" glyph-name="uni01C4" horiz-adv-x="1359" d="M1030 983.5l-111 150h87.5l64-87.5 68 87.5h90l-117-150h-81.5zM830 141v88.5l310 540.5h-296v109h468v-89.5l-309-543.5h315v-105h-488zM95 141v738h320q177 0 238-105 34-59 34-152.5v-226.5q0-187-142-235.5-54-18.5-129.5-18.5h-320.5zM243.5 256.5h159q76 0 106 28t30 91.5v265q0 62.5-30.75 92.5t-105.25 30h-159v-507z" />
<glyph unicode="&#x1c5;" glyph-name="uni01C5" horiz-adv-x="1220" d="M954 781.5l-111 150h87.5l64-87.5 68 87.5h90l-117-150h-81.5zM819 141v83.5l211 360.5h-206v93h352v-82l-209.5-360h207v-95h-354.5zM95 141v738h320q177 0 238-105 34-59 34-152.5v-226.5q0-187-142-235.5-54-18.5-129.5-18.5h-320.5zM243.5 256.5h159q76 0 106 28t30 91.5v265q0 62.5-30.75 92.5t-105.25 30h-159v-507z" />
<glyph unicode="&#x1c6;" glyph-name="uni01C6" horiz-adv-x="1052" d="M786 781.5l-111 150h87.5l64-87.5 68 87.5h90l-117-150h-81.5zM651 141v83.5l211 360.5h-206v93h352v-82l-209.5-360h207v-95h-354.5zM221.5 243q23.5-18 75.5-18t88 21.5v329.5q-39 18.5-88 18.5t-74-17.25-25-56.75v-219.5q0-40 23.5-58zM275.5 129.5q-107 0-160.25 45.25t-53.25 128.25v214.5q0 78.5 55.25 125.25t167.75 46.75q48 0 100-19v228.5h136v-758h-92l-14.5 31.5q-61.5-43-139-43z" />
<glyph unicode="&#x1c7;" glyph-name="uni01C7" horiz-adv-x="1197" d="M1033.5 187.25q-70.5-58.75-192.5-58.75t-220 46l34.5 110q36.5-17 85.25-28t87.75-11q66 0 96.5 32t30.5 84v404.5h-254v113h402.5v-527q0-106-70.5-164.75zM95 141v738h148.5v-622h308.5v-116h-457z" />
<glyph unicode="&#x1c8;" glyph-name="uni01C8" horiz-adv-x="905" d="M688 754.5v120.5h136v-120.5h-136zM587.5-40l-6.5 97h22q86 0 86 89v532h136v-538.5q0-84-45.5-131.75t-141.5-47.75h-50.5zM95 141v738h148.5v-622h308.5v-116h-457z" />
<glyph unicode="&#x1c9;" glyph-name="uni01C9" horiz-adv-x="673" d="M456 754.5v120.5h136v-120.5h-136zM355.5-40l-6.5 97h22q86 0 86 89v532h136v-538.5q0-84-45.5-131.75t-141.5-47.75h-50.5zM263.5 135q-92.5 0-137 42t-44.5 140.5v581h136v-579q0-45 21-64.25t75-19.25h17l-10.5-101h-57z" />
<glyph unicode="&#x1ca;" glyph-name="uni01CA" horiz-adv-x="1428" d="M1264.5 187.25q-70.5-58.75-192.5-58.75t-220 46l34.5 110q36.5-17 85.25-28t87.75-11q66 0 96.5 32t30.5 84v404.5h-254v113h402.5v-527q0-106-70.5-164.75zM95 141v738h111.5l383.5-506v506h132v-738h-111.5l-382 498v-498h-133.5z" />
<glyph unicode="&#x1cb;" glyph-name="uni01CB" horiz-adv-x="1136" d="M919 754.5v120.5h136v-120.5h-136zM818.5-40l-6.5 97h22q86 0 86 89v532h136v-538.5q0-84-45.5-131.75t-141.5-47.75h-50.5zM95 141v738h111.5l383.5-506v506h132v-738h-111.5l-382 498v-498h-133.5z" />
<glyph unicode="&#x1cc;" glyph-name="uni01CC" horiz-adv-x="946" d="M729 754.5v120.5h136v-120.5h-136zM628.5-40l-6.5 97h22q86 0 86 89v532h136v-538.5q0-84-45.5-131.75t-141.5-47.75h-50.5zM415 518.5q0 69.5-94.5 69.5-40.5 0-72.5-21.25t-32-58.25v-367.5h-136v537h136v-47.5q68.5 60 160 60t133.25-47 41.75-117.5v-385h-136v377.5z" />
<glyph unicode="&#x1f1;" glyph-name="uni01F1" horiz-adv-x="1359" d="M830 141v88.5l310 540.5h-296v109h468v-89.5l-309-543.5h315v-105h-488zM95 141v738h320q177 0 238-105 34-59 34-152.5v-226.5q0-187-142-235.5-54-18.5-129.5-18.5h-320.5zM243.5 256.5h159q76 0 106 28t30 91.5v265q0 62.5-30.75 92.5t-105.25 30h-159v-507z" />
<glyph unicode="&#x1f2;" glyph-name="uni01F2" horiz-adv-x="1220" d="M819 141v83.5l211 360.5h-206v93h352v-82l-209.5-360h207v-95h-354.5zM95 141v738h320q177 0 238-105 34-59 34-152.5v-226.5q0-187-142-235.5-54-18.5-129.5-18.5h-320.5zM243.5 256.5h159q76 0 106 28t30 91.5v265q0 62.5-30.75 92.5t-105.25 30h-159v-507z" />
<glyph unicode="&#x1f3;" glyph-name="uni01F3" horiz-adv-x="1052" d="M651 141v83.5l211 360.5h-206v93h352v-82l-209.5-360h207v-95h-354.5zM221.5 243q23.5-18 75.5-18t88 21.5v329.5q-39 18.5-88 18.5t-74-17.25-25-56.75v-219.5q0-40 23.5-58zM275.5 129.5q-107 0-160.25 45.25t-53.25 128.25v214.5q0 78.5 55.25 125.25t167.75 46.75q48 0 100-19v228.5h136v-758h-92l-14.5 31.5q-61.5-43-139-43z" />
<glyph unicode="&#x1f4;" glyph-name="uni01F4" horiz-adv-x="804" d="M357.5 983.5l57 182.5h134l-116.5-182.5h-74.5zM487.75 136.25q-36.25-8.25-97.25-8.25-60.5 0-118.5 13-108.5 24-150.25 86.25t-41.75 155.75v246.5q0 152.5 97 213 78.5 49 229.5 49 242.5-0.5 287.5-136.5 15-46 15-110.5v-11.5l-146-11v29.5q0 72-35 97.75t-122.75 25.75-132-28-44.25-100v-279q0-73.5 45.5-98.5t132-25 127.75 25 41.25 98.5v54h-149v97.5h283v-378.5h-78.5l-23.5 85q-6.5-22-24.75-40.75t-38.5-29.75-56.5-19.25z" />
<glyph unicode="&#x1f5;" glyph-name="uni01F5" horiz-adv-x="606" d="M258.5 781.5l57 182.5h134l-116.5-182.5h-74.5zM294 247.5q66.5 0 99.5 24v285.5q0 12-28.5 25-29 12.5-74 12.5-93 0-93-75v-200.5q0-71.5 96-71.5zM287-79.5q-118.5 0-177.5 28l28 92.5q75.5-21 139.25-21t90.25 25.25 26.5 80.75v59q-47-28-133.25-28t-142.25 44.25-56 122.75v192.5q0 72.5 47.25 122.75t157.25 50.25q42.5 0 83.25-14.25t67.25-35.75l11.5 39h101v-543.5q0-214.5-242.5-214.5z" />
<glyph unicode="&#x1f8;" glyph-name="uni01F8" horiz-adv-x="817" d="M371 983.5l-118.5 182.5h133.5l60.5-182.5h-75.5zM95 141v738h111.5l383.5-506v506h132v-738h-111.5l-382 498v-498h-133.5z" />
<glyph unicode="&#x1f9;" glyph-name="uni01F9" horiz-adv-x="627" d="M278 782.5l-118.5 182.5h133.5l60.5-182.5h-75.5zM415 518.5q0 69.5-94.5 69.5-40.5 0-72.5-21.25t-32-58.25v-367.5h-136v537h136v-47.5q68.5 60 160 60t133.25-47 41.75-117.5v-385h-136v377.5z" />
<glyph unicode="&#x1fa;" glyph-name="Aringacute" horiz-adv-x="756" d="M341 1189l57 182.5h134l-116.5-182.5h-74.5zM378 884.5q-54 0-84.5 28t-30.5 78.5 30.5 78.25 84.5 27.75 84.5-27.75 30.5-78.25-30.5-78.5-84.5-28zM378 929.5q59 0 59 61.75t-59 61.75-59-61.75 59-61.75zM262.5 380.5h231l-113.5 388zM35 141l243 738h197l246-738h-157.5l-41.5 140.5h-289l-43-140.5h-155z" />
</font>
</defs>
</svg>
